<?xml version="1.0" encoding="utf-8" ?>
<svg baseProfile="full" height="240" stroke="black" version="1.1" width="640" xmlns="http://www.w3.org/2000/svg" xmlns:ev="http://www.w3.org/2001/xml-events" xmlns:xlink="http://www.w3.org/1999/xlink"><defs /><g transform="translate(10,10)"><g stroke="none"><rect fill="rgb(70,52,35)" height="20" width="20" x="0" y="0" /><rect fill="rgb(70,52,35)" height="20" width="20" x="20" y="0" /><rect fill="rgb(70,52,35)" height="20" width="20" x="40" y="0" /><rect fill="rgb(70,52,35)" height="20" width="20" x="60" y="0" /><rect fill="rgb(70,52,35)" height="20" width="20" x="80" y="0" /><rect fill="rgb(70,52,35)" height="20" width="20" x="100" y="0" /><rect fill="rgb(70,52,35)" height="20" width="20" x="120" y="0" /><rect fill="rgb(70,52,35)" height="20" width="20" x="140" y="0" /><rect fill="rgb(70,52,35)" height="20" width="20" x="160" y="0" /><rect fill="rgb(70,52,35)" height="20" width="20" x="180" y="0" /><rect fill="rgb(70,52,35)" height="20" width="20" x="0" y="20" /><rect fill="rgb(70,52,35)" height="20" width="20" x="20" y="20" /><rect fill="rgb(255,191,127)" height="20" width="20" x="40" y="20" /><rect fill="rgb(70,52,35)" height="20" width="20" x="60" y="20" /><rect fill="rgb(70,52,35)" height="20" width="20" x="80" y="20" /><rect fill="rgb(70,52,35)" height="20" width="20" x="100" y="20" /><rect fill="rgb(70,52,35)" height="20" width="20" x="120" y="20" /><rect fill="rgb(255,191,127)" height="20" width="20" x="140" y="20" /><rect fill="rgb(70,52,35)" height="20" width="20" x="160" y="20" /><rect fill="rgb(70,52,35)" height="20" width="20" x="180" y="20" /><rect fill="rgb(70,52,35)" height="20" width="20" x="0" y="40" /><rect fill="rgb(70,52,35)" height="20" width="20" x="20" y="40" /><rect fill="rgb(70,52,35)" height="20" width="20" x="40" y="40" /><rect fill="rgb(255,191,127)" height="20" width="20" x="60" y="40" /><rect fill="rgb(70,52,35)" height="20" width="20" x="80" y="40" /><rect fill="rgb(70,52,35)" height="20" width="20" x="100" y="40" /><rect fill="rgb(255,191,127)" height="20" width="20" x="120" y="40" /><rect fill="rgb(70,52,35)" height="20" width="20" x="140" y="40" /><rect fill="rgb(70,52,35)" height="20" width="20" x="160" y="40" /><rect fill="rgb(70,52,35)" height="20" width="20" x="180" y="40" /><rect fill="rgb(70,52,35)" height="20" width="20" x="0" y="60" /><rect fill="rgb(70,52,35)" height="20" width="20" x="20" y="60" /><rect fill="rgb(255,191,127)" height="20" width="20" x="40" y="60" /><rect fill="rgb(255,191,127)" height="20" width="20" x="60" y="60" /><rect fill="rgb(255,191,127)" height="20" width="20" x="80" y="60" /><rect fill="rgb(255,191,127)" height="20" width="20" x="100" y="60" /><rect fill="rgb(255,191,127)" height="20" width="20" x="120" y="60" /><rect fill="rgb(255,191,127)" height="20" width="20" x="140" y="60" /><rect fill="rgb(70,52,35)" height="20" width="20" x="160" y="60" /><rect fill="rgb(70,52,35)" height="20" width="20" x="180" y="60" /><rect fill="rgb(70,52,35)" height="20" width="20" x="0" y="80" /><rect fill="rgb(255,191,127)" height="20" width="20" x="20" y="80" /><rect fill="rgb(255,191,127)" height="20" width="20" x="40" y="80" /><rect fill="rgb(70,52,35)" height="20" width="20" x="60" y="80" /><rect fill="rgb(255,191,127)" height="20" width="20" x="80" y="80" /><rect fill="rgb(255,191,127)" height="20" width="20" x="100" y="80" /><rect fill="rgb(70,52,35)" height="20" width="20" x="120" y="80" /><rect fill="rgb(255,191,127)" height="20" width="20" x="140" y="80" /><rect fill="rgb(255,191,127)" height="20" width="20" x="160" y="80" /><rect fill="rgb(70,52,35)" height="20" width="20" x="180" y="80" /><rect fill="rgb(255,191,127)" height="20" width="20" x="0" y="100" /><rect fill="rgb(255,191,127)" height="20" width="20" x="20" y="100" /><rect fill="rgb(255,191,127)" height="20" width="20" x="40" y="100" /><rect fill="rgb(255,191,127)" height="20" width="20" x="60" y="100" /><rect fill="rgb(255,191,127)" height="20" width="20" x="80" y="100" /><rect fill="rgb(255,191,127)" height="20" width="20" x="100" y="100" /><rect fill="rgb(255,191,127)" height="20" width="20" x="120" y="100" /><rect fill="rgb(255,191,127)" height="20" width="20" x="140" y="100" /><rect fill="rgb(255,191,127)" height="20" width="20" x="160" y="100" /><rect fill="rgb(255,191,127)" height="20" width="20" x="180" y="100" /><rect fill="rgb(255,191,127)" height="20" width="20" x="0" y="120" /><rect fill="rgb(70,52,35)" height="20" width="20" x="20" y="120" /><rect fill="rgb(255,191,127)" height="20" width="20" x="40" y="120" /><rect fill="rgb(255,191,127)" height="20" width="20" x="60" y="120" /><rect fill="rgb(255,191,127)" height="20" width="20" x="80" y="120" /><rect fill="rgb(255,191,127)" height="20" width="20" x="100" y="120" /><rect fill="rgb(255,191,127)" height="20" width="20" x="120" y="120" /><rect fill="rgb(255,191,127)" height="20" width="20" x="140" y="120" /><rect fill="rgb(70,52,35)" height="20" width="20" x="160" y="120" /><rect fill="rgb(255,191,127)" height="20" width="20" x="180" y="120" /><rect fill="rgb(255,191,127)" height="20" width="20" x="0" y="140" /><rect fill="rgb(70,52,35)" height="20" width="20" x="20" y="140" /><rect fill="rgb(255,191,127)" height="20" width="20" x="40" y="140" /><rect fill="rgb(70,52,35)" height="20" width="20" x="60" y="140" /><rect fill="rgb(70,52,35)" height="20" width="20" x="80" y="140" /><rect fill="rgb(70,52,35)" height="20" width="20" x="100" y="140" /><rect fill="rgb(70,52,35)" height="20" width="20" x="120" y="140" /><rect fill="rgb(255,191,127)" height="20" width="20" x="140" y="140" /><rect fill="rgb(70,52,35)" height="20" width="20" x="160" y="140" /><rect fill="rgb(255,191,127)" height="20" width="20" x="180" y="140" /><rect fill="rgb(70,52,35)" height="20" width="20" x="0" y="160" /><rect fill="rgb(70,52,35)" height="20" width="20" x="20" y="160" /><rect fill="rgb(70,52,35)" height="20" width="20" x="40" y="160" /><rect fill="rgb(255,191,127)" height="20" width="20" x="60" y="160" /><rect fill="rgb(255,191,127)" height="20" width="20" x="80" y="160" /><rect fill="rgb(255,191,127)" height="20" width="20" x="100" y="160" /><rect fill="rgb(255,191,127)" height="20" width="20" x="120" y="160" /><rect fill="rgb(70,52,35)" height="20" width="20" x="140" y="160" /><rect fill="rgb(70,52,35)" height="20" width="20" x="160" y="160" /><rect fill="rgb(70,52,35)" height="20" width="20" x="180" y="160" /><rect fill="rgb(70,52,35)" height="20" width="20" x="0" y="180" /><rect fill="rgb(70,52,35)" height="20" width="20" x="20" y="180" /><rect fill="rgb(70,52,35)" height="20" width="20" x="40" y="180" /><rect fill="rgb(70,52,35)" height="20" width="20" x="60" y="180" /><rect fill="rgb(70,52,35)" height="20" width="20" x="80" y="180" /><rect fill="rgb(70,52,35)" height="20" width="20" x="100" y="180" /><rect fill="rgb(70,52,35)" height="20" width="20" x="120" y="180" /><rect fill="rgb(70,52,35)" height="20" width="20" x="140" y="180" /><rect fill="rgb(70,52,35)" height="20" width="20" x="160" y="180" /><rect fill="rgb(70,52,35)" height="20" width="20" x="180" y="180" /></g><line x1="0" x2="200" y1="0" y2="0" /><line x1="0" x2="200" y1="20" y2="20" /><line x1="0" x2="200" y1="40" y2="40" /><line x1="0" x2="200" y1="60" y2="60" /><line x1="0" x2="200" y1="80" y2="80" /><line x1="0" x2="200" y1="100" y2="100" /><line x1="0" x2="200" y1="120" y2="120" /><line x1="0" x2="200" y1="140" y2="140" /><line x1="0" x2="200" y1="160" y2="160" /><line x1="0" x2="200" y1="180" y2="180" /><line x1="0" x2="200" y1="200" y2="200" /><line x1="0" x2="0" y1="0" y2="200" /><line x1="20" x2="20" y1="0" y2="200" /><line x1="40" x2="40" y1="0" y2="200" /><line x1="60" x2="60" y1="0" y2="200" /><line x1="80" x2="80" y1="0" y2="200" /><line x1="100" x2="100" y1="0" y2="200" /><line x1="120" x2="120" y1="0" y2="200" /><line x1="140" x2="140" y1="0" y2="200" /><line x1="160" x2="160" y1="0" y2="200" /><line x1="180" x2="180" y1="0" y2="200" /><line x1="200" x2="200" y1="0" y2="200" /><text fill="rgb(255,255,255)" stroke="none" x="6" y="16">F</text><text fill="rgb(255,255,255)" stroke="none" x="26" y="16">F</text><text fill="rgb(255,255,255)" stroke="none" x="46" y="16">F</text><text fill="rgb(255,255,255)" stroke="none" x="66" y="16">F</text><text fill="rgb(255,255,255)" stroke="none" x="86" y="16">F</text><text fill="rgb(255,255,255)" stroke="none" x="106" y="16">F</text><text fill="rgb(255,255,255)" stroke="none" x="126" y="16">F</text><text fill="rgb(255,255,255)" stroke="none" x="146" y="16">F</text><text fill="rgb(255,255,255)" stroke="none" x="166" y="16">F</text><text fill="rgb(255,255,255)" stroke="none" x="186" y="16">F</text><text fill="rgb(255,255,255)" stroke="none" x="6" y="36">F</text><text fill="rgb(255,255,255)" stroke="none" x="26" y="36">F</text><text fill="rgb(0,0,0)" stroke="none" x="46" y="36">T</text><text fill="rgb(255,255,255)" stroke="none" x="66" y="36">F</text><text fill="rgb(255,255,255)" stroke="none" x="86" y="36">F</text><text fill="rgb(255,255,255)" stroke="none" x="106" y="36">F</text><text fill="rgb(255,255,255)" stroke="none" x="126" y="36">F</text><text fill="rgb(0,0,0)" stroke="none" x="146" y="36">T</text><text fill="rgb(255,255,255)" stroke="none" x="166" y="36">F</text><text fill="rgb(255,255,255)" stroke="none" x="186" y="36">F</text><text fill="rgb(255,255,255)" stroke="none" x="6" y="56">F</text><text fill="rgb(255,255,255)" stroke="none" x="26" y="56">F</text><text fill="rgb(255,255,255)" stroke="none" x="46" y="56">F</text><text fill="rgb(0,0,0)" stroke="none" x="66" y="56">T</text><text fill="rgb(255,255,255)" stroke="none" x="86" y="56">F</text><text fill="rgb(255,255,255)" stroke="none" x="106" y="56">F</text><text fill="rgb(0,0,0)" stroke="none" x="126" y="56">T</text><text fill="rgb(255,255,255)" stroke="none" x="146" y="56">F</text><text fill="rgb(255,255,255)" stroke="none" x="166" y="56">F</text><text fill="rgb(255,255,255)" stroke="none" x="186" y="56">F</text><text fill="rgb(255,255,255)" stroke="none" x="6" y="76">F</text><text fill="rgb(255,255,255)" stroke="none" x="26" y="76">F</text><text fill="rgb(0,0,0)" stroke="none" x="46" y="76">T</text><text fill="rgb(0,0,0)" stroke="none" x="66" y="76">T</text><text fill="rgb(0,0,0)" stroke="none" x="86" y="76">T</text><text fill="rgb(0,0,0)" stroke="none" x="106" y="76">T</text><text fill="rgb(0,0,0)" stroke="none" x="126" y="76">T</text><text fill="rgb(0,0,0)" stroke="none" x="146" y="76">T</text><text fill="rgb(255,255,255)" stroke="none" x="166" y="76">F</text><text fill="rgb(255,255,255)" stroke="none" x="186" y="76">F</text><text fill="rgb(255,255,255)" stroke="none" x="6" y="96">F</text><text fill="rgb(0,0,0)" stroke="none" x="26" y="96">T</text><text fill="rgb(0,0,0)" stroke="none" x="46" y="96">T</text><text fill="rgb(255,255,255)" stroke="none" x="66" y="96">F</text><text fill="rgb(0,0,0)" stroke="none" x="86" y="96">T</text><text fill="rgb(0,0,0)" stroke="none" x="106" y="96">T</text><text fill="rgb(255,255,255)" stroke="none" x="126" y="96">F</text><text fill="rgb(0,0,0)" stroke="none" x="146" y="96">T</text><text fill="rgb(0,0,0)" stroke="none" x="166" y="96">T</text><text fill="rgb(255,255,255)" stroke="none" x="186" y="96">F</text><text fill="rgb(0,0,0)" stroke="none" x="6" y="116">T</text><text fill="rgb(0,0,0)" stroke="none" x="26" y="116">T</text><text fill="rgb(0,0,0)" stroke="none" x="46" y="116">T</text><text fill="rgb(0,0,0)" stroke="none" x="66" y="116">T</text><text fill="rgb(0,0,0)" stroke="none" x="86" y="116">T</text><text fill="rgb(0,0,0)" stroke="none" x="106" y="116">T</text><text fill="rgb(0,0,0)" stroke="none" x="126" y="116">T</text><text fill="rgb(0,0,0)" stroke="none" x="146" y="116">T</text><text fill="rgb(0,0,0)" stroke="none" x="166" y="116">T</text><text fill="rgb(0,0,0)" stroke="none" x="186" y="116">T</text><text fill="rgb(0,0,0)" stroke="none" x="6" y="136">T</text><text fill="rgb(255,255,255)" stroke="none" x="26" y="136">F</text><text fill="rgb(0,0,0)" stroke="none" x="46" y="136">T</text><text fill="rgb(0,0,0)" stroke="none" x="66" y="136">T</text><text fill="rgb(0,0,0)" stroke="none" x="86" y="136">T</text><text fill="rgb(0,0,0)" stroke="none" x="106" y="136">T</text><text fill="rgb(0,0,0)" stroke="none" x="126" y="136">T</text><text fill="rgb(0,0,0)" stroke="none" x="146" y="136">T</text><text fill="rgb(255,255,255)" stroke="none" x="166" y="136">F</text><text fill="rgb(0,0,0)" stroke="none" x="186" y="136">T</text><text fill="rgb(0,0,0)" stroke="none" x="6" y="156">T</text><text fill="rgb(255,255,255)" stroke="none" x="26" y="156">F</text><text fill="rgb(0,0,0)" stroke="none" x="46" y="156">T</text><text fill="rgb(255,255,255)" stroke="none" x="66" y="156">F</text><text fill="rgb(255,255,255)" stroke="none" x="86" y="156">F</text><text fill="rgb(255,255,255)" stroke="none" x="106" y="156">F</text><text fill="rgb(255,255,255)" stroke="none" x="126" y="156">F</text><text fill="rgb(0,0,0)" stroke="none" x="146" y="156">T</text><text fill="rgb(255,255,255)" stroke="none" x="166" y="156">F</text><text fill="rgb(0,0,0)" stroke="none" x="186" y="156">T</text><text fill="rgb(255,255,255)" stroke="none" x="6" y="176">F</text><text fill="rgb(255,255,255)" stroke="none" x="26" y="176">F</text><text fill="rgb(255,255,255)" stroke="none" x="46" y="176">F</text><text fill="rgb(0,0,0)" stroke="none" x="66" y="176">T</text><text fill="rgb(0,0,0)" stroke="none" x="86" y="176">T</text><text fill="rgb(0,0,0)" stroke="none" x="106" y="176">T</text><text fill="rgb(0,0,0)" stroke="none" x="126" y="176">T</text><text fill="rgb(255,255,255)" stroke="none" x="146" y="176">F</text><text fill="rgb(255,255,255)" stroke="none" x="166" y="176">F</text><text fill="rgb(255,255,255)" stroke="none" x="186" y="176">F</text><text fill="rgb(255,255,255)" stroke="none" x="6" y="196">F</text><text fill="rgb(255,255,255)" stroke="none" x="26" y="196">F</text><text fill="rgb(255,255,255)" stroke="none" x="46" y="196">F</text><text fill="rgb(255,255,255)" stroke="none" x="66" y="196">F</text><text fill="rgb(255,255,255)" stroke="none" x="86" y="196">F</text><text fill="rgb(255,255,255)" stroke="none" x="106" y="196">F</text><text fill="rgb(255,255,255)" stroke="none" x="126" y="196">F</text><text fill="rgb(255,255,255)" stroke="none" x="146" y="196">F</text><text fill="rgb(255,255,255)" stroke="none" x="166" y="196">F</text><text fill="rgb(255,255,255)" stroke="none" x="186" y="196">F</text></g><g transform="translate(220,10)"><g stroke="none"><rect fill="rgb(255,191,127)" height="20" width="20" x="0" y="0" /><rect fill="rgb(162,121,81)" height="20" width="20" x="20" y="0" /><rect fill="rgb(131,98,65)" height="20" width="20" x="40" y="0" /><rect fill="rgb(162,121,81)" height="20" width="20" x="60" y="0" /><rect fill="rgb(255,191,127)" height="20" width="20" x="80" y="0" /><rect fill="rgb(255,191,127)" height="20" width="20" x="100" y="0" /><rect fill="rgb(162,121,81)" height="20" width="20" x="120" y="0" /><rect fill="rgb(131,98,65)" height="20" width="20" x="140" y="0" /><rect fill="rgb(162,121,81)" height="20" width="20" x="160" y="0" /><rect fill="rgb(255,191,127)" height="20" width="20" x="180" y="0" /><rect fill="rgb(224,168,112)" height="20" width="20" x="0" y="20" /><rect fill="rgb(131,98,65)" height="20" width="20" x="20" y="20" /><rect fill="rgb(100,75,50)" height="20" width="20" x="40" y="20" /><rect fill="rgb(131,98,65)" height="20" width="20" x="60" y="20" /><rect fill="rgb(162,121,81)" height="20" width="20" x="80" y="20" /><rect fill="rgb(162,121,81)" height="20" width="20" x="100" y="20" /><rect fill="rgb(131,98,65)" height="20" width="20" x="120" y="20" /><rect fill="rgb(100,75,50)" height="20" width="20" x="140" y="20" /><rect fill="rgb(131,98,65)" height="20" width="20" x="160" y="20" /><rect fill="rgb(224,168,112)" height="20" width="20" x="180" y="20" /><rect fill="rgb(255,191,127)" height="20" width="20" x="0" y="40" /><rect fill="rgb(162,121,81)" height="20" width="20" x="20" y="40" /><rect fill="rgb(131,98,65)" height="20" width="20" x="40" y="40" /><rect fill="rgb(100,75,50)" height="20" width="20" x="60" y="40" /><rect fill="rgb(131,98,65)" height="20" width="20" x="80" y="40" /><rect fill="rgb(131,98,65)" height="20" width="20" x="100" y="40" /><rect fill="rgb(100,75,50)" height="20" width="20" x="120" y="40" /><rect fill="rgb(131,98,65)" height="20" width="20" x="140" y="40" /><rect fill="rgb(162,121,81)" height="20" width="20" x="160" y="40" /><rect fill="rgb(255,191,127)" height="20" width="20" x="180" y="40" /><rect fill="rgb(162,121,81)" height="20" width="20" x="0" y="60" /><rect fill="rgb(131,98,65)" height="20" width="20" x="20" y="60" /><rect fill="rgb(100,75,50)" height="20" width="20" x="40" y="60" /><rect fill="rgb(100,75,50)" height="20" width="20" x="60" y="60" /><rect fill="rgb(100,75,50)" height="20" width="20" x="80" y="60" /><rect fill="rgb(100,75,50)" height="20" width="20" x="100" y="60" /><rect fill="rgb(100,75,50)" height="20" width="20" x="120" y="60" /><rect fill="rgb(100,75,50)" height="20" width="20" x="140" y="60" /><rect fill="rgb(131,98,65)" height="20" width="20" x="160" y="60" /><rect fill="rgb(162,121,81)" height="20" width="20" x="180" y="60" /><rect fill="rgb(131,98,65)" height="20" width="20" x="0" y="80" /><rect fill="rgb(100,75,50)" height="20" width="20" x="20" y="80" /><rect fill="rgb(100,75,50)" height="20" width="20" x="40" y="80" /><rect fill="rgb(131,98,65)" height="20" width="20" x="60" y="80" /><rect fill="rgb(100,75,50)" height="20" width="20" x="80" y="80" /><rect fill="rgb(100,75,50)" height="20" width="20" x="100" y="80" /><rect fill="rgb(131,98,65)" height="20" width="20" x="120" y="80" /><rect fill="rgb(100,75,50)" height="20" width="20" x="140" y="80" /><rect fill="rgb(100,75,50)" height="20" width="20" x="160" y="80" /><rect fill="rgb(131,98,65)" height="20" width="20" x="180" y="80" /><rect fill="rgb(100,75,50)" height="20" width="20" x="0" y="100" /><rect fill="rgb(100,75,50)" height="20" width="20" x="20" y="100" /><rect fill="rgb(100,75,50)" height="20" width="20" x="40" y="100" /><rect fill="rgb(100,75,50)" height="20" width="20" x="60" y="100" /><rect fill="rgb(100,75,50)" height="20" width="20" x="80" y="100" /><rect fill="rgb(100,75,50)" height="20" width="20" x="100" y="100" /><rect fill="rgb(100,75,50)" height="20" width="20" x="120" y="100" /><rect fill="rgb(100,75,50)" height="20" width="20" x="140" y="100" /><rect fill="rgb(100,75,50)" height="20" width="20" x="160" y="100" /><rect fill="rgb(100,75,50)" height="20" width="20" x="180" y="100" /><rect fill="rgb(100,75,50)" height="20" width="20" x="0" y="120" /><rect fill="rgb(131,98,65)" height="20" width="20" x="20" y="120" /><rect fill="rgb(100,75,50)" height="20" width="20" x="40" y="120" /><rect fill="rgb(100,75,50)" height="20" width="20" x="60" y="120" /><rect fill="rgb(100,75,50)" height="20" width="20" x="80" y="120" /><rect fill="rgb(100,75,50)" height="20" width="20" x="100" y="120" /><rect fill="rgb(100,75,50)" height="20" width="20" x="120" y="120" /><rect fill="rgb(100,75,50)" height="20" width="20" x="140" y="120" /><rect fill="rgb(131,98,65)" height="20" width="20" x="160" y="120" /><rect fill="rgb(100,75,50)" height="20" width="20" x="180" y="120" /><rect fill="rgb(100,75,50)" height="20" width="20" x="0" y="140" /><rect fill="rgb(131,98,65)" height="20" width="20" x="20" y="140" /><rect fill="rgb(100,75,50)" height="20" width="20" x="40" y="140" /><rect fill="rgb(131,98,65)" height="20" width="20" x="60" y="140" /><rect fill="rgb(131,98,65)" height="20" width="20" x="80" y="140" /><rect fill="rgb(131,98,65)" height="20" width="20" x="100" y="140" /><rect fill="rgb(131,98,65)" height="20" width="20" x="120" y="140" /><rect fill="rgb(100,75,50)" height="20" width="20" x="140" y="140" /><rect fill="rgb(131,98,65)" height="20" width="20" x="160" y="140" /><rect fill="rgb(100,75,50)" height="20" width="20" x="180" y="140" /><rect fill="rgb(131,98,65)" height="20" width="20" x="0" y="160" /><rect fill="rgb(162,121,81)" height="20" width="20" x="20" y="160" /><rect fill="rgb(131,98,65)" height="20" width="20" x="40" y="160" /><rect fill="rgb(100,75,50)" height="20" width="20" x="60" y="160" /><rect fill="rgb(100,75,50)" height="20" width="20" x="80" y="160" /><rect fill="rgb(100,75,50)" height="20" width="20" x="100" y="160" /><rect fill="rgb(100,75,50)" height="20" width="20" x="120" y="160" /><rect fill="rgb(131,98,65)" height="20" width="20" x="140" y="160" /><rect fill="rgb(162,121,81)" height="20" width="20" x="160" y="160" /><rect fill="rgb(131,98,65)" height="20" width="20" x="180" y="160" /><rect fill="rgb(224,168,112)" height="20" width="20" x="0" y="180" /><rect fill="rgb(255,191,127)" height="20" width="20" x="20" y="180" /><rect fill="rgb(162,121,81)" height="20" width="20" x="40" y="180" /><rect fill="rgb(131,98,65)" height="20" width="20" x="60" y="180" /><rect fill="rgb(131,98,65)" height="20" width="20" x="80" y="180" /><rect fill="rgb(131,98,65)" height="20" width="20" x="100" y="180" /><rect fill="rgb(131,98,65)" height="20" width="20" x="120" y="180" /><rect fill="rgb(162,121,81)" height="20" width="20" x="140" y="180" /><rect fill="rgb(255,191,127)" height="20" width="20" x="160" y="180" /><rect fill="rgb(224,168,112)" height="20" width="20" x="180" y="180" /></g><line x1="0" x2="200" y1="0" y2="0" /><line x1="0" x2="200" y1="20" y2="20" /><line x1="0" x2="200" y1="40" y2="40" /><line x1="0" x2="200" y1="60" y2="60" /><line x1="0" x2="200" y1="80" y2="80" /><line x1="0" x2="200" y1="100" y2="100" /><line x1="0" x2="200" y1="120" y2="120" /><line x1="0" x2="200" y1="140" y2="140" /><line x1="0" x2="200" y1="160" y2="160" /><line x1="0" x2="200" y1="180" y2="180" /><line x1="0" x2="200" y1="200" y2="200" /><line x1="0" x2="0" y1="0" y2="200" /><line x1="20" x2="20" y1="0" y2="200" /><line x1="40" x2="40" y1="0" y2="200" /><line x1="60" x2="60" y1="0" y2="200" /><line x1="80" x2="80" y1="0" y2="200" /><line x1="100" x2="100" y1="0" y2="200" /><line x1="120" x2="120" y1="0" y2="200" /><line x1="140" x2="140" y1="0" y2="200" /><line x1="160" x2="160" y1="0" y2="200" /><line x1="180" x2="180" y1="0" y2="200" /><line x1="200" x2="200" y1="0" y2="200" /><text fill="rgb(0,0,0)" stroke="none" x="6" y="16">5</text><text fill="rgb(0,0,0)" stroke="none" x="26" y="16">2</text><text fill="rgb(0,0,0)" stroke="none" x="46" y="16">1</text><text fill="rgb(0,0,0)" stroke="none" x="66" y="16">2</text><text fill="rgb(0,0,0)" stroke="none" x="86" y="16">5</text><text fill="rgb(0,0,0)" stroke="none" x="106" y="16">5</text><text fill="rgb(0,0,0)" stroke="none" x="126" y="16">2</text><text fill="rgb(0,0,0)" stroke="none" x="146" y="16">1</text><text fill="rgb(0,0,0)" stroke="none" x="166" y="16">2</text><text fill="rgb(0,0,0)" stroke="none" x="186" y="16">5</text><text fill="rgb(0,0,0)" stroke="none" x="6" y="36">4</text><text fill="rgb(0,0,0)" stroke="none" x="26" y="36">1</text><text fill="rgb(200,200,200)" stroke="none" x="46" y="36">0</text><text fill="rgb(0,0,0)" stroke="none" x="66" y="36">1</text><text fill="rgb(0,0,0)" stroke="none" x="86" y="36">2</text><text fill="rgb(0,0,0)" stroke="none" x="106" y="36">2</text><text fill="rgb(0,0,0)" stroke="none" x="126" y="36">1</text><text fill="rgb(200,200,200)" stroke="none" x="146" y="36">0</text><text fill="rgb(0,0,0)" stroke="none" x="166" y="36">1</text><text fill="rgb(0,0,0)" stroke="none" x="186" y="36">4</text><text fill="rgb(0,0,0)" stroke="none" x="6" y="56">5</text><text fill="rgb(0,0,0)" stroke="none" x="26" y="56">2</text><text fill="rgb(0,0,0)" stroke="none" x="46" y="56">1</text><text fill="rgb(200,200,200)" stroke="none" x="66" y="56">0</text><text fill="rgb(0,0,0)" stroke="none" x="86" y="56">1</text><text fill="rgb(0,0,0)" stroke="none" x="106" y="56">1</text><text fill="rgb(200,200,200)" stroke="none" x="126" y="56">0</text><text fill="rgb(0,0,0)" stroke="none" x="146" y="56">1</text><text fill="rgb(0,0,0)" stroke="none" x="166" y="56">2</text><text fill="rgb(0,0,0)" stroke="none" x="186" y="56">5</text><text fill="rgb(0,0,0)" stroke="none" x="6" y="76">2</text><text fill="rgb(0,0,0)" stroke="none" x="26" y="76">1</text><text fill="rgb(200,200,200)" stroke="none" x="46" y="76">0</text><text fill="rgb(200,200,200)" stroke="none" x="66" y="76">0</text><text fill="rgb(200,200,200)" stroke="none" x="86" y="76">0</text><text fill="rgb(200,200,200)" stroke="none" x="106" y="76">0</text><text fill="rgb(200,200,200)" stroke="none" x="126" y="76">0</text><text fill="rgb(200,200,200)" stroke="none" x="146" y="76">0</text><text fill="rgb(0,0,0)" stroke="none" x="166" y="76">1</text><text fill="rgb(0,0,0)" stroke="none" x="186" y="76">2</text><text fill="rgb(0,0,0)" stroke="none" x="6" y="96">1</text><text fill="rgb(200,200,200)" stroke="none" x="26" y="96">0</text><text fill="rgb(200,200,200)" stroke="none" x="46" y="96">0</text><text fill="rgb(0,0,0)" stroke="none" x="66" y="96">1</text><text fill="rgb(200,200,200)" stroke="none" x="86" y="96">0</text><text fill="rgb(200,200,200)" stroke="none" x="106" y="96">0</text><text fill="rgb(0,0,0)" stroke="none" x="126" y="96">1</text><text fill="rgb(200,200,200)" stroke="none" x="146" y="96">0</text><text fill="rgb(200,200,200)" stroke="none" x="166" y="96">0</text><text fill="rgb(0,0,0)" stroke="none" x="186" y="96">1</text><text fill="rgb(200,200,200)" stroke="none" x="6" y="116">0</text><text fill="rgb(200,200,200)" stroke="none" x="26" y="116">0</text><text fill="rgb(200,200,200)" stroke="none" x="46" y="116">0</text><text fill="rgb(200,200,200)" stroke="none" x="66" y="116">0</text><text fill="rgb(200,200,200)" stroke="none" x="86" y="116">0</text><text fill="rgb(200,200,200)" stroke="none" x="106" y="116">0</text><text fill="rgb(200,200,200)" stroke="none" x="126" y="116">0</text><text fill="rgb(200,200,200)" stroke="none" x="146" y="116">0</text><text fill="rgb(200,200,200)" stroke="none" x="166" y="116">0</text><text fill="rgb(200,200,200)" stroke="none" x="186" y="116">0</text><text fill="rgb(200,200,200)" stroke="none" x="6" y="136">0</text><text fill="rgb(0,0,0)" stroke="none" x="26" y="136">1</text><text fill="rgb(200,200,200)" stroke="none" x="46" y="136">0</text><text fill="rgb(200,200,200)" stroke="none" x="66" y="136">0</text><text fill="rgb(200,200,200)" stroke="none" x="86" y="136">0</text><text fill="rgb(200,200,200)" stroke="none" x="106" y="136">0</text><text fill="rgb(200,200,200)" stroke="none" x="126" y="136">0</text><text fill="rgb(200,200,200)" stroke="none" x="146" y="136">0</text><text fill="rgb(0,0,0)" stroke="none" x="166" y="136">1</text><text fill="rgb(200,200,200)" stroke="none" x="186" y="136">0</text><text fill="rgb(200,200,200)" stroke="none" x="6" y="156">0</text><text fill="rgb(0,0,0)" stroke="none" x="26" y="156">1</text><text fill="rgb(200,200,200)" stroke="none" x="46" y="156">0</text><text fill="rgb(0,0,0)" stroke="none" x="66" y="156">1</text><text fill="rgb(0,0,0)" stroke="none" x="86" y="156">1</text><text fill="rgb(0,0,0)" stroke="none" x="106" y="156">1</text><text fill="rgb(0,0,0)" stroke="none" x="126" y="156">1</text><text fill="rgb(200,200,200)" stroke="none" x="146" y="156">0</text><text fill="rgb(0,0,0)" stroke="none" x="166" y="156">1</text><text fill="rgb(200,200,200)" stroke="none" x="186" y="156">0</text><text fill="rgb(0,0,0)" stroke="none" x="6" y="176">1</text><text fill="rgb(0,0,0)" stroke="none" x="26" y="176">2</text><text fill="rgb(0,0,0)" stroke="none" x="46" y="176">1</text><text fill="rgb(200,200,200)" stroke="none" x="66" y="176">0</text><text fill="rgb(200,200,200)" stroke="none" x="86" y="176">0</text><text fill="rgb(200,200,200)" stroke="none" x="106" y="176">0</text><text fill="rgb(200,200,200)" stroke="none" x="126" y="176">0</text><text fill="rgb(0,0,0)" stroke="none" x="146" y="176">1</text><text fill="rgb(0,0,0)" stroke="none" x="166" y="176">2</text><text fill="rgb(0,0,0)" stroke="none" x="186" y="176">1</text><text fill="rgb(0,0,0)" stroke="none" x="6" y="196">4</text><text fill="rgb(0,0,0)" stroke="none" x="26" y="196">5</text><text fill="rgb(0,0,0)" stroke="none" x="46" y="196">2</text><text fill="rgb(0,0,0)" stroke="none" x="66" y="196">1</text><text fill="rgb(0,0,0)" stroke="none" x="86" y="196">1</text><text fill="rgb(0,0,0)" stroke="none" x="106" y="196">1</text><text fill="rgb(0,0,0)" stroke="none" x="126" y="196">1</text><text fill="rgb(0,0,0)" stroke="none" x="146" y="196">2</text><text fill="rgb(0,0,0)" stroke="none" x="166" y="196">5</text><text fill="rgb(0,0,0)" stroke="none" x="186" y="196">4</text></g><g style="font-size: 12px" transform="translate(430,10)"><g stroke="none"><rect fill="rgb(255,191,127)" height="20" width="20" x="0" y="0" /><rect fill="rgb(162,121,81)" height="20" width="20" x="20" y="0" /><rect fill="rgb(131,98,65)" height="20" width="20" x="40" y="0" /><rect fill="rgb(162,121,81)" height="20" width="20" x="60" y="0" /><rect fill="rgb(255,191,127)" height="20" width="20" x="80" y="0" /><rect fill="rgb(255,191,127)" height="20" width="20" x="100" y="0" /><rect fill="rgb(162,121,81)" height="20" width="20" x="120" y="0" /><rect fill="rgb(131,98,65)" height="20" width="20" x="140" y="0" /><rect fill="rgb(162,121,81)" height="20" width="20" x="160" y="0" /><rect fill="rgb(255,191,127)" height="20" width="20" x="180" y="0" /><rect fill="rgb(224,168,112)" height="20" width="20" x="0" y="20" /><rect fill="rgb(131,98,65)" height="20" width="20" x="20" y="20" /><rect fill="rgb(69,51,34)" height="20" width="20" x="40" y="20" /><rect fill="rgb(131,98,65)" height="20" width="20" x="60" y="20" /><rect fill="rgb(162,121,81)" height="20" width="20" x="80" y="20" /><rect fill="rgb(162,121,81)" height="20" width="20" x="100" y="20" /><rect fill="rgb(131,98,65)" height="20" width="20" x="120" y="20" /><rect fill="rgb(69,51,34)" height="20" width="20" x="140" y="20" /><rect fill="rgb(131,98,65)" height="20" width="20" x="160" y="20" /><rect fill="rgb(224,168,112)" height="20" width="20" x="180" y="20" /><rect fill="rgb(255,191,127)" height="20" width="20" x="0" y="40" /><rect fill="rgb(162,121,81)" height="20" width="20" x="20" y="40" /><rect fill="rgb(131,98,65)" height="20" width="20" x="40" y="40" /><rect fill="rgb(69,51,34)" height="20" width="20" x="60" y="40" /><rect fill="rgb(131,98,65)" height="20" width="20" x="80" y="40" /><rect fill="rgb(131,98,65)" height="20" width="20" x="100" y="40" /><rect fill="rgb(69,51,34)" height="20" width="20" x="120" y="40" /><rect fill="rgb(131,98,65)" height="20" width="20" x="140" y="40" /><rect fill="rgb(162,121,81)" height="20" width="20" x="160" y="40" /><rect fill="rgb(255,191,127)" height="20" width="20" x="180" y="40" /><rect fill="rgb(162,121,81)" height="20" width="20" x="0" y="60" /><rect fill="rgb(131,98,65)" height="20" width="20" x="20" y="60" /><rect fill="rgb(69,51,34)" height="20" width="20" x="40" y="60" /><rect fill="rgb(69,51,34)" height="20" width="20" x="60" y="60" /><rect fill="rgb(69,51,34)" height="20" width="20" x="80" y="60" /><rect fill="rgb(69,51,34)" height="20" width="20" x="100" y="60" /><rect fill="rgb(69,51,34)" height="20" width="20" x="120" y="60" /><rect fill="rgb(69,51,34)" height="20" width="20" x="140" y="60" /><rect fill="rgb(131,98,65)" height="20" width="20" x="160" y="60" /><rect fill="rgb(162,121,81)" height="20" width="20" x="180" y="60" /><rect fill="rgb(131,98,65)" height="20" width="20" x="0" y="80" /><rect fill="rgb(69,51,34)" height="20" width="20" x="20" y="80" /><rect fill="rgb(69,51,34)" height="20" width="20" x="40" y="80" /><rect fill="rgb(131,98,65)" height="20" width="20" x="60" y="80" /><rect fill="rgb(69,51,34)" height="20" width="20" x="80" y="80" /><rect fill="rgb(69,51,34)" height="20" width="20" x="100" y="80" /><rect fill="rgb(131,98,65)" height="20" width="20" x="120" y="80" /><rect fill="rgb(69,51,34)" height="20" width="20" x="140" y="80" /><rect fill="rgb(69,51,34)" height="20" width="20" x="160" y="80" /><rect fill="rgb(131,98,65)" height="20" width="20" x="180" y="80" /><rect fill="rgb(69,51,34)" height="20" width="20" x="0" y="100" /><rect fill="rgb(69,51,34)" height="20" width="20" x="20" y="100" /><rect fill="rgb(37,28,18)" height="20" width="20" x="40" y="100" /><rect fill="rgb(69,51,34)" height="20" width="20" x="60" y="100" /><rect fill="rgb(37,28,18)" height="20" width="20" x="80" y="100" /><rect fill="rgb(37,28,18)" height="20" width="20" x="100" y="100" /><rect fill="rgb(69,51,34)" height="20" width="20" x="120" y="100" /><rect fill="rgb(37,28,18)" height="20" width="20" x="140" y="100" /><rect fill="rgb(69,51,34)" height="20" width="20" x="160" y="100" /><rect fill="rgb(69,51,34)" height="20" width="20" x="180" y="100" /><rect fill="rgb(69,51,34)" height="20" width="20" x="0" y="120" /><rect fill="rgb(131,98,65)" height="20" width="20" x="20" y="120" /><rect fill="rgb(69,51,34)" height="20" width="20" x="40" y="120" /><rect fill="rgb(69,51,34)" height="20" width="20" x="60" y="120" /><rect fill="rgb(69,51,34)" height="20" width="20" x="80" y="120" /><rect fill="rgb(69,51,34)" height="20" width="20" x="100" y="120" /><rect fill="rgb(69,51,34)" height="20" width="20" x="120" y="120" /><rect fill="rgb(69,51,34)" height="20" width="20" x="140" y="120" /><rect fill="rgb(131,98,65)" height="20" width="20" x="160" y="120" /><rect fill="rgb(69,51,34)" height="20" width="20" x="180" y="120" /><rect fill="rgb(69,51,34)" height="20" width="20" x="0" y="140" /><rect fill="rgb(131,98,65)" height="20" width="20" x="20" y="140" /><rect fill="rgb(69,51,34)" height="20" width="20" x="40" y="140" /><rect fill="rgb(131,98,65)" height="20" width="20" x="60" y="140" /><rect fill="rgb(131,98,65)" height="20" width="20" x="80" y="140" /><rect fill="rgb(131,98,65)" height="20" width="20" x="100" y="140" /><rect fill="rgb(131,98,65)" height="20" width="20" x="120" y="140" /><rect fill="rgb(69,51,34)" height="20" width="20" x="140" y="140" /><rect fill="rgb(131,98,65)" height="20" width="20" x="160" y="140" /><rect fill="rgb(69,51,34)" height="20" width="20" x="180" y="140" /><rect fill="rgb(131,98,65)" height="20" width="20" x="0" y="160" /><rect fill="rgb(162,121,81)" height="20" width="20" x="20" y="160" /><rect fill="rgb(131,98,65)" height="20" width="20" x="40" y="160" /><rect fill="rgb(69,51,34)" height="20" width="20" x="60" y="160" /><rect fill="rgb(69,51,34)" height="20" width="20" x="80" y="160" /><rect fill="rgb(69,51,34)" height="20" width="20" x="100" y="160" /><rect fill="rgb(69,51,34)" height="20" width="20" x="120" y="160" /><rect fill="rgb(131,98,65)" height="20" width="20" x="140" y="160" /><rect fill="rgb(162,121,81)" height="20" width="20" x="160" y="160" /><rect fill="rgb(131,98,65)" height="20" width="20" x="180" y="160" /><rect fill="rgb(224,168,112)" height="20" width="20" x="0" y="180" /><rect fill="rgb(255,191,127)" height="20" width="20" x="20" y="180" /><rect fill="rgb(162,121,81)" height="20" width="20" x="40" y="180" /><rect fill="rgb(131,98,65)" height="20" width="20" x="60" y="180" /><rect fill="rgb(131,98,65)" height="20" width="20" x="80" y="180" /><rect fill="rgb(131,98,65)" height="20" width="20" x="100" y="180" /><rect fill="rgb(131,98,65)" height="20" width="20" x="120" y="180" /><rect fill="rgb(162,121,81)" height="20" width="20" x="140" y="180" /><rect fill="rgb(255,191,127)" height="20" width="20" x="160" y="180" /><rect fill="rgb(224,168,112)" height="20" width="20" x="180" y="180" /></g><line x1="0" x2="200" y1="0" y2="0" /><line x1="0" x2="200" y1="20" y2="20" /><line x1="0" x2="200" y1="40" y2="40" /><line x1="0" x2="200" y1="60" y2="60" /><line x1="0" x2="200" y1="80" y2="80" /><line x1="0" x2="200" y1="100" y2="100" /><line x1="0" x2="200" y1="120" y2="120" /><line x1="0" x2="200" y1="140" y2="140" /><line x1="0" x2="200" y1="160" y2="160" /><line x1="0" x2="200" y1="180" y2="180" /><line x1="0" x2="200" y1="200" y2="200" /><line x1="0" x2="0" y1="0" y2="200" /><line x1="20" x2="20" y1="0" y2="200" /><line x1="40" x2="40" y1="0" y2="200" /><line x1="60" x2="60" y1="0" y2="200" /><line x1="80" x2="80" y1="0" y2="200" /><line x1="100" x2="100" y1="0" y2="200" /><line x1="120" x2="120" y1="0" y2="200" /><line x1="140" x2="140" y1="0" y2="200" /><line x1="160" x2="160" y1="0" y2="200" /><line x1="180" x2="180" y1="0" y2="200" /><line x1="200" x2="200" y1="0" y2="200" /><text fill="rgb(0,0,0)" stroke="none" x="3" y="14">+5</text><text fill="rgb(0,0,0)" stroke="none" x="23" y="14">+2</text><text fill="rgb(0,0,0)" stroke="none" x="43" y="14">+1</text><text fill="rgb(0,0,0)" stroke="none" x="63" y="14">+2</text><text fill="rgb(0,0,0)" stroke="none" x="83" y="14">+5</text><text fill="rgb(0,0,0)" stroke="none" x="103" y="14">+5</text><text fill="rgb(0,0,0)" stroke="none" x="123" y="14">+2</text><text fill="rgb(0,0,0)" stroke="none" x="143" y="14">+1</text><text fill="rgb(0,0,0)" stroke="none" x="163" y="14">+2</text><text fill="rgb(0,0,0)" stroke="none" x="183" y="14">+5</text><text fill="rgb(0,0,0)" stroke="none" x="3" y="34">+4</text><text fill="rgb(0,0,0)" stroke="none" x="23" y="34">+1</text><text fill="rgb(255,255,255)" stroke="none" x="43" y="34">-1</text><text fill="rgb(0,0,0)" stroke="none" x="63" y="34">+1</text><text fill="rgb(0,0,0)" stroke="none" x="83" y="34">+2</text><text fill="rgb(0,0,0)" stroke="none" x="103" y="34">+2</text><text fill="rgb(0,0,0)" stroke="none" x="123" y="34">+1</text><text fill="rgb(255,255,255)" stroke="none" x="143" y="34">-1</text><text fill="rgb(0,0,0)" stroke="none" x="163" y="34">+1</text><text fill="rgb(0,0,0)" stroke="none" x="183" y="34">+4</text><text fill="rgb(0,0,0)" stroke="none" x="3" y="54">+5</text><text fill="rgb(0,0,0)" stroke="none" x="23" y="54">+2</text><text fill="rgb(0,0,0)" stroke="none" x="43" y="54">+1</text><text fill="rgb(255,255,255)" stroke="none" x="63" y="54">-1</text><text fill="rgb(0,0,0)" stroke="none" x="83" y="54">+1</text><text fill="rgb(0,0,0)" stroke="none" x="103" y="54">+1</text><text fill="rgb(255,255,255)" stroke="none" x="123" y="54">-1</text><text fill="rgb(0,0,0)" stroke="none" x="143" y="54">+1</text><text fill="rgb(0,0,0)" stroke="none" x="163" y="54">+2</text><text fill="rgb(0,0,0)" stroke="none" x="183" y="54">+5</text><text fill="rgb(0,0,0)" stroke="none" x="3" y="74">+2</text><text fill="rgb(0,0,0)" stroke="none" x="23" y="74">+1</text><text fill="rgb(255,255,255)" stroke="none" x="43" y="74">-1</text><text fill="rgb(255,255,255)" stroke="none" x="63" y="74">-1</text><text fill="rgb(255,255,255)" stroke="none" x="83" y="74">-1</text><text fill="rgb(255,255,255)" stroke="none" x="103" y="74">-1</text><text fill="rgb(255,255,255)" stroke="none" x="123" y="74">-1</text><text fill="rgb(255,255,255)" stroke="none" x="143" y="74">-1</text><text fill="rgb(0,0,0)" stroke="none" x="163" y="74">+1</text><text fill="rgb(0,0,0)" stroke="none" x="183" y="74">+2</text><text fill="rgb(0,0,0)" stroke="none" x="3" y="94">+1</text><text fill="rgb(255,255,255)" stroke="none" x="23" y="94">-1</text><text fill="rgb(255,255,255)" stroke="none" x="43" y="94">-1</text><text fill="rgb(0,0,0)" stroke="none" x="63" y="94">+1</text><text fill="rgb(255,255,255)" stroke="none" x="83" y="94">-1</text><text fill="rgb(255,255,255)" stroke="none" x="103" y="94">-1</text><text fill="rgb(0,0,0)" stroke="none" x="123" y="94">+1</text><text fill="rgb(255,255,255)" stroke="none" x="143" y="94">-1</text><text fill="rgb(255,255,255)" stroke="none" x="163" y="94">-1</text><text fill="rgb(0,0,0)" stroke="none" x="183" y="94">+1</text><text fill="rgb(255,255,255)" stroke="none" x="3" y="114">-1</text><text fill="rgb(255,255,255)" stroke="none" x="23" y="114">-1</text><text fill="rgb(255,255,255)" stroke="none" x="43" y="114">-2</text><text fill="rgb(255,255,255)" stroke="none" x="63" y="114">-1</text><text fill="rgb(255,255,255)" stroke="none" x="83" y="114">-2</text><text fill="rgb(255,255,255)" stroke="none" x="103" y="114">-2</text><text fill="rgb(255,255,255)" stroke="none" x="123" y="114">-1</text><text fill="rgb(255,255,255)" stroke="none" x="143" y="114">-2</text><text fill="rgb(255,255,255)" stroke="none" x="163" y="114">-1</text><text fill="rgb(255,255,255)" stroke="none" x="183" y="114">-1</text><text fill="rgb(255,255,255)" stroke="none" x="3" y="134">-1</text><text fill="rgb(0,0,0)" stroke="none" x="23" y="134">+1</text><text fill="rgb(255,255,255)" stroke="none" x="43" y="134">-1</text><text fill="rgb(255,255,255)" stroke="none" x="63" y="134">-1</text><text fill="rgb(255,255,255)" stroke="none" x="83" y="134">-1</text><text fill="rgb(255,255,255)" stroke="none" x="103" y="134">-1</text><text fill="rgb(255,255,255)" stroke="none" x="123" y="134">-1</text><text fill="rgb(255,255,255)" stroke="none" x="143" y="134">-1</text><text fill="rgb(0,0,0)" stroke="none" x="163" y="134">+1</text><text fill="rgb(255,255,255)" stroke="none" x="183" y="134">-1</text><text fill="rgb(255,255,255)" stroke="none" x="3" y="154">-1</text><text fill="rgb(0,0,0)" stroke="none" x="23" y="154">+1</text><text fill="rgb(255,255,255)" stroke="none" x="43" y="154">-1</text><text fill="rgb(0,0,0)" stroke="none" x="63" y="154">+1</text><text fill="rgb(0,0,0)" stroke="none" x="83" y="154">+1</text><text fill="rgb(0,0,0)" stroke="none" x="103" y="154">+1</text><text fill="rgb(0,0,0)" stroke="none" x="123" y="154">+1</text><text fill="rgb(255,255,255)" stroke="none" x="143" y="154">-1</text><text fill="rgb(0,0,0)" stroke="none" x="163" y="154">+1</text><text fill="rgb(255,255,255)" stroke="none" x="183" y="154">-1</text><text fill="rgb(0,0,0)" stroke="none" x="3" y="174">+1</text><text fill="rgb(0,0,0)" stroke="none" x="23" y="174">+2</text><text fill="rgb(0,0,0)" stroke="none" x="43" y="174">+1</text><text fill="rgb(255,255,255)" stroke="none" x="63" y="174">-1</text><text fill="rgb(255,255,255)" stroke="none" x="83" y="174">-1</text><text fill="rgb(255,255,255)" stroke="none" x="103" y="174">-1</text><text fill="rgb(255,255,255)" stroke="none" x="123" y="174">-1</text><text fill="rgb(0,0,0)" stroke="none" x="143" y="174">+1</text><text fill="rgb(0,0,0)" stroke="none" x="163" y="174">+2</text><text fill="rgb(0,0,0)" stroke="none" x="183" y="174">+1</text><text fill="rgb(0,0,0)" stroke="none" x="3" y="194">+4</text><text fill="rgb(0,0,0)" stroke="none" x="23" y="194">+5</text><text fill="rgb(0,0,0)" stroke="none" x="43" y="194">+2</text><text fill="rgb(0,0,0)" stroke="none" x="63" y="194">+1</text><text fill="rgb(0,0,0)" stroke="none" x="83" y="194">+1</text><text fill="rgb(0,0,0)" stroke="none" x="103" y="194">+1</text><text fill="rgb(0,0,0)" stroke="none" x="123" y="194">+1</text><text fill="rgb(0,0,0)" stroke="none" x="143" y="194">+2</text><text fill="rgb(0,0,0)" stroke="none" x="163" y="194">+5</text><text fill="rgb(0,0,0)" stroke="none" x="183" y="194">+4</text></g><text fill="black" stroke="none" x="100" y="230">(a)</text><text fill="black" stroke="none" x="310" y="230">(b)</text><text fill="black" stroke="none" x="520" y="230">(c)</text></svg>