<?xml version="1.0" encoding="utf-8" ?>
<svg baseProfile="full" height="300" version="1.1" width="500" xmlns="http://www.w3.org/2000/svg" xmlns:ev="http://www.w3.org/2001/xml-events" xmlns:xlink="http://www.w3.org/1999/xlink"><defs /><g stroke="black" style="font-size: 20px"><rect fill="rgb(255,191,127)" height="48" width="48" x="10" y="242" /><rect fill="rgb(255,191,127)" height="48" width="48" x="58" y="242" /><rect fill="rgb(255,191,127)" height="48" width="48" x="106" y="242" /><rect fill="rgb(224,168,112)" height="48" width="48" x="154" y="242" /><rect fill="rgb(131,98,65)" height="48" width="48" x="202" y="242" /><rect fill="rgb(100,75,50)" height="48" width="48" x="250" y="242" /><rect fill="rgb(131,98,65)" height="48" width="48" x="298" y="242" /><rect fill="rgb(224,168,112)" height="48" width="48" x="346" y="242" /><rect fill="rgb(255,191,127)" height="48" width="48" x="394" y="242" /><rect fill="rgb(255,191,127)" height="48" width="48" x="442" y="242" /><line x1="10" x2="490" y1="242" y2="242" /><line x1="10" x2="490" y1="290" y2="290" /><line x1="10" x2="10" y1="242" y2="290" /><line x1="58" x2="58" y1="242" y2="290" /><line x1="106" x2="106" y1="242" y2="290" /><line x1="154" x2="154" y1="242" y2="290" /><line x1="202" x2="202" y1="242" y2="290" /><line x1="250" x2="250" y1="242" y2="290" /><line x1="298" x2="298" y1="242" y2="290" /><line x1="346" x2="346" y1="242" y2="290" /><line x1="394" x2="394" y1="242" y2="290" /><line x1="442" x2="442" y1="242" y2="290" /><line x1="490" x2="490" y1="242" y2="290" /><text fill="rgb(0,0,0)" stroke="none" x="16" y="286">15</text><text fill="rgb(0,0,0)" stroke="none" x="64" y="286">12</text><text fill="rgb(0,0,0)" stroke="none" x="112" y="286">9</text><text fill="rgb(0,0,0)" stroke="none" x="160" y="286">4</text><text fill="rgb(0,0,0)" stroke="none" x="208" y="286">1</text><text fill="rgb(200,200,200)" stroke="none" x="256" y="286">0</text><text fill="rgb(0,0,0)" stroke="none" x="304" y="286">1</text><text fill="rgb(0,0,0)" stroke="none" x="352" y="286">4</text><text fill="rgb(0,0,0)" stroke="none" x="400" y="286">9</text><text fill="rgb(0,0,0)" stroke="none" x="448" y="286">16</text></g><line stroke="#555" stroke-dasharray="3 2" x1="34" x2="34" y1="21.200000000000003" y2="242" /><line stroke="#555" stroke-dasharray="3 2" x1="82" x2="82" y1="55.760000000000005" y2="242" /><line stroke="#555" stroke-dasharray="3 2" x1="130" x2="130" y1="90.32000000000001" y2="242" /><line stroke="#555" stroke-dasharray="3 2" x1="178" x2="178" y1="147.92000000000002" y2="242" /><line stroke="#555" stroke-dasharray="3 2" x1="226" x2="226" y1="182.48" y2="242" /><line stroke="#555" stroke-dasharray="3 2" x1="274" x2="274" y1="194.0" y2="242" /><line stroke="#555" stroke-dasharray="3 2" x1="322" x2="322" y1="182.48" y2="242" /><line stroke="#555" stroke-dasharray="3 2" x1="370" x2="370" y1="147.92000000000002" y2="242" /><line stroke="#555" stroke-dasharray="3 2" x1="418" x2="418" y1="90.32000000000001" y2="242" /><line stroke="#555" stroke-dasharray="3 2" x1="466" x2="466" y1="9.680000000000007" y2="242" /><polyline fill="none" points="10,-4.719999999999999 14.8,0.9247999999999905 19.6,6.339199999999991 24.400000000000002,11.523200000000003 29.200000000000003,16.476800000000004 34.0,21.200000000000003 38.8,25.6928 43.599999999999994,29.955199999999998 48.39999999999999,33.987199999999994 53.19999999999999,37.788799999999995 57.999999999999986,41.359999999999985 62.79999999999998,44.70079999999999 67.59999999999998,47.811199999999985 72.39999999999998,50.69119999999999 77.19999999999997,53.34079999999999 81.99999999999997,55.75999999999999 86.79999999999997,57.94879999999999 91.59999999999997,59.90719999999999 96.39999999999996,61.63519999999999 101.19999999999996,63.13279999999999 105.99999999999996,64.39999999999999 110.79999999999995,65.43679999999999 115.59999999999995,66.24319999999999 120.39999999999995,66.8192 125.19999999999995,67.1648 129.99999999999994,67.28 134.79999999999995,67.1648 139.59999999999997,66.81920000000001 144.39999999999998,66.2432 149.2,65.4368 154.0,64.4 158.8,63.132799999999996 163.60000000000002,61.63519999999999 168.40000000000003,59.90719999999999 173.20000000000005,57.948799999999984 178.00000000000006,55.75999999999998 182.80000000000007,53.340799999999966 187.60000000000008,50.69119999999995 192.4000000000001,47.81119999999994 197.2000000000001,44.70079999999993 202.0000000000001,41.359999999999914 206.80000000000013,37.78879999999991 211.60000000000014,33.98719999999989 216.40000000000015,29.95519999999987 221.20000000000016,25.692799999999856 226.00000000000017,21.199999999999832 230.80000000000018,16.47679999999982 235.6000000000002,11.52319999999979 240.4000000000002,6.339199999999771 245.20000000000022,0.9247999999997489 250.00000000000023,-4.720000000000283 254.80000000000024,-10.595200000000304 259.60000000000025,-16.700800000000328 264.40000000000026,-23.036800000000355 269.2000000000003,-29.603200000000385 274.0000000000003,-36.400000000000404 278.8000000000003,-43.42720000000044 283.6000000000003,-50.68480000000048 288.4000000000003,-58.17280000000051 293.20000000000033,-65.89120000000054 298.00000000000034,-73.84000000000057 302.80000000000035,-82.01920000000061 307.60000000000036,-90.42880000000065 312.4000000000004,-99.06880000000069 317.2000000000004,-107.93920000000071 322.0000000000004,-117.04000000000076 326.8000000000004,-126.37120000000081 331.6000000000004,-135.93280000000087 336.40000000000043,-145.7248000000009 341.20000000000044,-155.74720000000096 346.00000000000045,-166.000000000001 350.80000000000047,-176.48320000000103 355.6000000000005,-187.19680000000108 360.4000000000005,-198.14080000000118 365.2000000000005,-209.31520000000123 370.0000000000005,-220.72000000000125 374.8000000000005,-232.3552000000013 379.60000000000053,-244.22080000000133 384.40000000000055,-256.3168000000014 389.20000000000056,-268.64320000000146 394.00000000000057,-281.2000000000015 398.8000000000006,-293.9872000000016 403.6000000000006,-307.00480000000164 408.4000000000006,-320.2528000000017 413.2000000000006,-333.73120000000176 418.0000000000006,-347.44000000000176 422.80000000000064,-361.3792000000019 427.60000000000065,-375.54880000000196 432.40000000000066,-389.94880000000205 437.20000000000067,-404.57920000000206 442.0000000000007,-419.4400000000021 446.8000000000007,-434.5312000000022 451.6000000000007,-449.8528000000024 456.4000000000007,-465.4048000000024 461.2000000000007,-481.18720000000246 466.00000000000074,-497.20000000000255 470.80000000000075,-513.4432000000025 475.60000000000076,-529.9168000000027 480.4000000000008,-546.6208000000028 485.2000000000008,-563.5552000000029" stroke="black" /><circle cx="130" cy="67.28" fill="none" r="3" stroke="#830" /><polyline fill="none" points="10,-50.8 14.8,-42.85119999999996 19.6,-35.1328 24.400000000000002,-27.64479999999999 29.200000000000003,-20.38720000000002 34.0,-13.359999999999985 38.8,-6.563199999999981 43.599999999999994,0.003199999999992542 48.39999999999999,6.339199999999977 53.19999999999999,12.444799999999987 57.999999999999986,18.319999999999993 62.79999999999998,23.964799999999997 67.59999999999998,29.379199999999976 72.39999999999998,34.56319999999998 77.19999999999997,39.51679999999998 81.99999999999997,44.23999999999998 86.79999999999997,48.732799999999976 91.59999999999997,52.995199999999976 96.39999999999996,57.02719999999998 101.19999999999996,60.82879999999997 105.99999999999996,64.39999999999998 110.79999999999995,67.74079999999998 115.59999999999995,70.85119999999998 120.39999999999995,73.73119999999997 125.19999999999995,76.38079999999998 129.99999999999994,78.79999999999998 134.79999999999995,80.98879999999998 139.59999999999997,82.9472 144.39999999999998,84.6752 149.2,86.17280000000001 154.0,87.44000000000001 158.8,88.47680000000001 163.60000000000002,89.28320000000001 168.40000000000003,89.85920000000002 173.20000000000005,90.2048 178.00000000000006,90.32000000000001 182.80000000000007,90.2048 187.60000000000008,89.8592 192.4000000000001,89.2832 197.2000000000001,88.47679999999998 202.0000000000001,87.43999999999998 206.80000000000013,86.17279999999997 211.60000000000014,84.67519999999996 216.40000000000015,82.94719999999995 221.20000000000016,80.98879999999994 226.00000000000017,78.79999999999993 230.80000000000018,76.38079999999991 235.6000000000002,73.73119999999989 240.4000000000002,70.85119999999988 245.20000000000022,67.74079999999987 250.00000000000023,64.39999999999984 254.80000000000024,60.828799999999816 259.60000000000025,57.0271999999998 264.40000000000026,52.99519999999978 269.2000000000003,48.73279999999976 274.0000000000003,44.23999999999973 278.8000000000003,39.51679999999971 283.6000000000003,34.563199999999675 288.4000000000003,29.379199999999656 293.20000000000033,23.964799999999627 298.00000000000034,18.319999999999595 302.80000000000035,12.44479999999956 307.60000000000036,6.339199999999536 312.4000000000004,0.0031999999994951622 317.2000000000004,-6.563200000000535 322.0000000000004,-13.360000000000568 326.8000000000004,-20.387200000000604 331.6000000000004,-27.644800000000643 336.40000000000043,-35.13280000000067 341.20000000000044,-42.85120000000073 346.00000000000045,-50.800000000000765 350.80000000000047,-58.9792000000008 355.6000000000005,-67.38880000000084 360.4000000000005,-76.02880000000089 365.2000000000005,-84.89920000000093 370.0000000000005,-94.00000000000098 374.8000000000005,-103.33120000000103 379.60000000000053,-112.89280000000106 384.40000000000055,-122.68480000000112 389.20000000000056,-132.70720000000114 394.00000000000057,-142.96000000000123 398.8000000000006,-153.4432000000013 403.6000000000006,-164.15680000000134 408.4000000000006,-175.1008000000014 413.2000000000006,-186.27520000000146 418.0000000000006,-197.68000000000148 422.80000000000064,-209.3152000000016 427.60000000000065,-221.18080000000162 432.40000000000066,-233.27680000000169 437.20000000000067,-245.60320000000178 442.0000000000007,-258.1600000000018 446.8000000000007,-270.9472000000018 451.6000000000007,-283.96480000000196 456.4000000000007,-297.212800000002 461.2000000000007,-310.6912000000021 466.00000000000074,-324.40000000000214 470.80000000000075,-338.3392000000022 475.60000000000076,-352.5088000000023 480.4000000000008,-366.9088000000024 485.2000000000008,-381.53920000000244" stroke="black" /><circle cx="178" cy="90.32000000000001" fill="none" r="3" stroke="#830" /><polyline fill="none" points="10,-166.00000000000003 14.8,-155.7472 19.6,-145.72480000000002 24.400000000000002,-135.9328 29.200000000000003,-126.37120000000002 34.0,-117.03999999999999 38.8,-107.93919999999997 43.599999999999994,-99.06880000000001 48.39999999999999,-90.42880000000005 53.19999999999999,-82.01920000000001 57.999999999999986,-73.84 62.79999999999998,-65.89120000000003 67.59999999999998,-58.17280000000005 72.39999999999998,-50.68480000000004 77.19999999999997,-43.42720000000003 81.99999999999997,-36.40000000000005 86.79999999999997,-29.603200000000072 91.59999999999997,-23.036800000000042 96.39999999999996,-16.70080000000003 101.19999999999996,-10.595200000000048 105.99999999999996,-4.7200000000000415 110.79999999999995,0.9247999999999479 115.59999999999995,6.339199999999941 120.39999999999995,11.523199999999946 125.19999999999995,16.476799999999955 129.99999999999994,21.199999999999946 134.79999999999995,25.692799999999956 139.59999999999997,29.95519999999997 144.39999999999998,33.98719999999998 149.2,37.788799999999995 154.0,41.36 158.8,44.70080000000001 163.60000000000002,47.811200000000014 168.40000000000003,50.69120000000002 173.20000000000005,53.34080000000002 178.00000000000006,55.760000000000026 182.80000000000007,57.948800000000034 187.60000000000008,59.90720000000003 192.4000000000001,61.63520000000003 197.2000000000001,63.13280000000003 202.0000000000001,64.40000000000003 206.80000000000013,65.43680000000002 211.60000000000014,66.24320000000002 216.40000000000015,66.81920000000001 221.20000000000016,67.16480000000001 226.00000000000017,67.28 230.80000000000018,67.16479999999999 235.6000000000002,66.81919999999998 240.4000000000002,66.24319999999997 245.20000000000022,65.43679999999996 250.00000000000023,64.39999999999995 254.80000000000024,63.13279999999993 259.60000000000025,61.63519999999992 264.40000000000026,59.907199999999904 269.2000000000003,57.948799999999885 274.0000000000003,55.75999999999986 278.8000000000003,53.340799999999845 283.6000000000003,50.691199999999824 288.4000000000003,47.8111999999998 293.20000000000033,44.70079999999978 298.00000000000034,41.35999999999976 302.80000000000035,37.788799999999725 307.60000000000036,33.9871999999997 312.4000000000004,29.955199999999678 317.2000000000004,25.692799999999643 322.0000000000004,21.19999999999962 326.8000000000004,16.476799999999592 331.6000000000004,11.523199999999555 336.40000000000043,6.339199999999522 341.20000000000044,0.9247999999994931 346.00000000000045,-4.720000000000553 350.80000000000047,-10.595200000000574 355.6000000000005,-16.700800000000612 360.4000000000005,-23.036800000000667 365.2000000000005,-29.603200000000697 370.0000000000005,-36.40000000000073 374.8000000000005,-43.42720000000078 379.60000000000053,-50.68480000000082 384.40000000000055,-58.17280000000086 389.20000000000056,-65.89120000000091 394.00000000000057,-73.84000000000097 398.8000000000006,-82.019200000001 403.6000000000006,-90.42880000000105 408.4000000000006,-99.06880000000109 413.2000000000006,-107.93920000000114 418.0000000000006,-117.04000000000121 422.80000000000064,-126.37120000000127 427.60000000000065,-135.93280000000132 432.40000000000066,-145.72480000000138 437.20000000000067,-155.7472000000014 442.0000000000007,-166.00000000000148 446.8000000000007,-176.48320000000152 451.6000000000007,-187.19680000000156 456.4000000000007,-198.1408000000017 461.2000000000007,-209.31520000000174 466.00000000000074,-220.72000000000176 470.80000000000075,-232.35520000000182 475.60000000000076,-244.2208000000019 480.4000000000008,-256.316800000002 485.2000000000008,-268.643200000002" stroke="black" /><circle cx="226" cy="67.28" fill="none" r="3" stroke="#830" /><polyline fill="none" points="10,-154.48000000000002 14.8,-141.9232 19.6,-129.59680000000003 24.400000000000002,-117.50079999999997 29.200000000000003,-105.6352 34.0,-94.0 38.8,-82.59519999999998 43.599999999999994,-71.42080000000004 48.39999999999999,-60.476800000000054 53.19999999999999,-49.76320000000004 57.999999999999986,-39.28000000000003 62.79999999999998,-29.027200000000022 67.59999999999998,-19.004800000000074 72.39999999999998,-9.212800000000072 77.19999999999997,0.3487999999999829 81.99999999999997,9.67999999999995 86.79999999999997,18.780799999999914 91.59999999999997,27.651199999999932 96.39999999999996,36.29119999999995 101.19999999999996,44.70079999999993 105.99999999999996,52.87999999999991 110.79999999999995,60.828799999999916 115.59999999999995,68.54719999999995 120.39999999999995,76.03519999999992 125.19999999999995,83.2927999999999 129.99999999999994,90.31999999999991 134.79999999999995,97.11679999999993 139.59999999999997,103.68319999999996 144.39999999999998,110.01919999999997 149.2,116.12479999999998 154.0,122.0 158.8,127.64480000000002 163.60000000000002,133.05920000000003 168.40000000000003,138.24320000000003 173.20000000000005,143.19680000000005 178.00000000000006,147.92000000000007 182.80000000000007,152.41280000000006 187.60000000000008,156.67520000000007 192.4000000000001,160.70720000000009 197.2000000000001,164.50880000000006 202.0000000000001,168.0800000000001 206.80000000000013,171.4208000000001 211.60000000000014,174.53120000000007 216.40000000000015,177.4112000000001 221.20000000000016,180.06080000000009 226.00000000000017,182.48000000000008 230.80000000000018,184.6688000000001 235.6000000000002,186.62720000000007 240.4000000000002,188.35520000000008 245.20000000000022,189.85280000000006 250.00000000000023,191.12000000000006 254.80000000000024,192.15680000000003 259.60000000000025,192.96320000000003 264.40000000000026,193.53920000000002 269.2000000000003,193.8848 274.0000000000003,194.0 278.8000000000003,193.88479999999998 283.6000000000003,193.53919999999997 288.4000000000003,192.96319999999994 293.20000000000033,192.15679999999995 298.00000000000034,191.11999999999992 302.80000000000035,189.8527999999999 307.60000000000036,188.35519999999988 312.4000000000004,186.62719999999985 317.2000000000004,184.66879999999983 322.0000000000004,182.47999999999982 326.8000000000004,180.06079999999977 331.6000000000004,177.41119999999975 336.40000000000043,174.53119999999973 341.20000000000044,171.4207999999997 346.00000000000045,168.07999999999967 350.80000000000047,164.50879999999964 355.6000000000005,160.7071999999996 360.4000000000005,156.67519999999956 365.2000000000005,152.41279999999955 370.0000000000005,147.9199999999995 374.8000000000005,143.19679999999948 379.60000000000053,138.24319999999943 384.40000000000055,133.0591999999994 389.20000000000056,127.64479999999935 394.00000000000057,121.99999999999932 398.8000000000006,116.12479999999928 403.6000000000006,110.01919999999923 408.4000000000006,103.68319999999919 413.2000000000006,97.11679999999915 418.0000000000006,90.31999999999908 422.80000000000064,83.29279999999905 427.60000000000065,76.03519999999901 432.40000000000066,68.54719999999894 437.20000000000067,60.82879999999889 442.0000000000007,52.87999999999886 446.8000000000007,44.70079999999882 451.6000000000007,36.29119999999875 456.4000000000007,27.65119999999868 461.2000000000007,18.780799999998635 466.00000000000074,9.679999999998586 470.80000000000075,0.3487999999985334 475.60000000000076,-9.212800000001522 480.4000000000008,-19.00480000000158 485.2000000000008,-29.02720000000167" stroke="black" /><circle cx="274" cy="194.0" fill="none" r="3" stroke="#830" /><circle cx="106.0" cy="64.4" fill="#333" r="2" /><circle cx="118.0" cy="72.32000000000001" fill="#333" r="2" /></svg>