<?xml version="1.0" encoding="utf-8" ?>
<svg baseProfile="full" height="200" version="1.1" width="500" xmlns="http://www.w3.org/2000/svg" xmlns:ev="http://www.w3.org/2001/xml-events" xmlns:xlink="http://www.w3.org/1999/xlink"><defs /><g transform="translate(0 -100)"><g stroke="black" style="font-size: 20px"><rect fill="rgb(224,168,112)" height="48" width="48" x="10" y="242" /><rect fill="rgb(131,98,65)" height="48" width="48" x="58" y="242" /><rect fill="rgb(100,75,50)" height="48" width="48" x="106" y="242" /><rect fill="rgb(131,98,65)" height="48" width="48" x="154" y="242" /><rect fill="rgb(224,168,112)" height="48" width="48" x="202" y="242" /><rect fill="rgb(224,168,112)" height="48" width="48" x="250" y="242" /><rect fill="rgb(131,98,65)" height="48" width="48" x="298" y="242" /><rect fill="rgb(100,75,50)" height="48" width="48" x="346" y="242" /><rect fill="rgb(131,98,65)" height="48" width="48" x="394" y="242" /><rect fill="rgb(224,168,112)" height="48" width="48" x="442" y="242" /><line x1="10" x2="490" y1="242" y2="242" /><line x1="10" x2="490" y1="290" y2="290" /><line x1="10" x2="10" y1="242" y2="290" /><line x1="58" x2="58" y1="242" y2="290" /><line x1="106" x2="106" y1="242" y2="290" /><line x1="154" x2="154" y1="242" y2="290" /><line x1="202" x2="202" y1="242" y2="290" /><line x1="250" x2="250" y1="242" y2="290" /><line x1="298" x2="298" y1="242" y2="290" /><line x1="346" x2="346" y1="242" y2="290" /><line x1="394" x2="394" y1="242" y2="290" /><line x1="442" x2="442" y1="242" y2="290" /><line x1="490" x2="490" y1="242" y2="290" /><text fill="rgb(0,0,0)" stroke="none" x="16" y="286">4</text><text fill="rgb(0,0,0)" stroke="none" x="64" y="286">1</text><text fill="rgb(200,200,200)" stroke="none" x="112" y="286">0</text><text fill="rgb(0,0,0)" stroke="none" x="160" y="286">1</text><text fill="rgb(0,0,0)" stroke="none" x="208" y="286">4</text><text fill="rgb(0,0,0)" stroke="none" x="256" y="286">4</text><text fill="rgb(0,0,0)" stroke="none" x="304" y="286">1</text><text fill="rgb(200,200,200)" stroke="none" x="352" y="286">0</text><text fill="rgb(0,0,0)" stroke="none" x="400" y="286">1</text><text fill="rgb(0,0,0)" stroke="none" x="448" y="286">4</text></g><line stroke="#555" stroke-dasharray="3 2" x1="34" x2="34" y1="147.92000000000002" y2="242" /><line stroke="#555" stroke-dasharray="3 2" x1="82" x2="82" y1="182.48" y2="242" /><line stroke="#555" stroke-dasharray="3 2" x1="130" x2="130" y1="194.0" y2="242" /><line stroke="#555" stroke-dasharray="3 2" x1="178" x2="178" y1="182.48" y2="242" /><line stroke="#555" stroke-dasharray="3 2" x1="226" x2="226" y1="147.92000000000002" y2="242" /><line stroke="#555" stroke-dasharray="3 2" x1="274" x2="274" y1="147.92000000000002" y2="242" /><line stroke="#555" stroke-dasharray="3 2" x1="322" x2="322" y1="182.48" y2="242" /><line stroke="#555" stroke-dasharray="3 2" x1="370" x2="370" y1="194.0" y2="242" /><line stroke="#555" stroke-dasharray="3 2" x1="418" x2="418" y1="182.48" y2="242" /><line stroke="#555" stroke-dasharray="3 2" x1="466" x2="466" y1="147.92000000000002" y2="242" /><polyline fill="none" points="10,122.0 14.8,127.64479999999999 19.6,133.05919999999998 24.400000000000002,138.2432 29.200000000000003,143.1968 34.0,147.92000000000002 38.8,152.4128 43.599999999999994,156.6752 48.39999999999999,160.7072 53.19999999999999,164.50879999999998 57.999999999999986,168.07999999999998 62.79999999999998,171.42079999999999 67.59999999999998,174.53119999999998 72.39999999999998,177.41119999999998 77.19999999999997,180.06079999999997 81.99999999999997,182.48 86.79999999999997,184.66879999999998 91.59999999999997,186.6272 96.39999999999996,188.3552 101.19999999999996,189.8528 105.99999999999996,191.11999999999998 110.79999999999995,192.1568 115.59999999999995,192.9632 120.39999999999995,193.5392 125.19999999999995,193.88479999999998 129.99999999999994,194.0 134.79999999999995,193.8848 139.59999999999997,193.5392 144.39999999999998,192.9632 149.2,192.1568 154.0,191.12 158.8,189.8528 163.60000000000002,188.3552 168.40000000000003,186.6272 173.20000000000005,184.66879999999998 178.00000000000006,182.47999999999996 182.80000000000007,180.06079999999997 187.60000000000008,177.41119999999995 192.4000000000001,174.53119999999996 197.2000000000001,171.42079999999993 202.0000000000001,168.07999999999993 206.80000000000013,164.5087999999999 211.60000000000014,160.7071999999999 216.40000000000015,156.67519999999988 221.20000000000016,152.41279999999986 226.00000000000017,147.91999999999985 230.80000000000018,143.19679999999983 235.6000000000002,138.24319999999977 240.4000000000002,133.05919999999978 245.20000000000022,127.64479999999975 250.00000000000023,121.99999999999972 254.80000000000024,116.1247999999997 259.60000000000025,110.01919999999967 264.40000000000026,103.68319999999964 269.2000000000003,97.11679999999961 274.0000000000003,90.3199999999996 278.8000000000003,83.29279999999956 283.6000000000003,76.03519999999952 288.4000000000003,68.54719999999949 293.20000000000033,60.82879999999946 298.00000000000034,52.87999999999943 302.80000000000035,44.70079999999939 307.60000000000036,36.29119999999935 312.4000000000004,27.651199999999307 317.2000000000004,18.78079999999929 322.0000000000004,9.67999999999924 326.8000000000004,0.3487999999991871 331.6000000000004,-9.212800000000868 336.40000000000043,-19.0048000000009 341.20000000000044,-29.02720000000096 346.00000000000045,-39.280000000000996 350.80000000000047,-49.763200000001035 355.6000000000005,-60.47680000000108 360.4000000000005,-71.42080000000118 365.2000000000005,-82.59520000000123 370.0000000000005,-94.00000000000125 374.8000000000005,-105.6352000000013 379.60000000000053,-117.50080000000133 384.40000000000055,-129.5968000000014 389.20000000000056,-141.92320000000143 394.00000000000057,-154.48000000000155 398.8000000000006,-167.2672000000016 403.6000000000006,-180.2848000000016 408.4000000000006,-193.53280000000166 413.2000000000006,-207.01120000000174 418.0000000000006,-220.7200000000018 422.80000000000064,-234.65920000000187 427.60000000000065,-248.82880000000193 432.40000000000066,-263.228800000002 437.20000000000067,-277.8592000000021 442.0000000000007,-292.72000000000213 446.8000000000007,-307.8112000000022 451.6000000000007,-323.13280000000236 456.4000000000007,-338.6848000000024 461.2000000000007,-354.46720000000244 466.00000000000074,-370.4800000000025 470.80000000000075,-386.7232000000025 475.60000000000076,-403.19680000000267 480.4000000000008,-419.90080000000273 485.2000000000008,-436.8352000000028" stroke="black" /><circle cx="130" cy="194" fill="none" r="3" stroke="#830" /><polyline fill="none" points="10,-454.0 14.8,-436.8352 19.6,-419.9008 24.400000000000002,-403.19680000000005 29.200000000000003,-386.72320000000013 34.0,-370.48 38.8,-354.46719999999993 43.599999999999994,-338.6847999999999 48.39999999999999,-323.1328000000001 53.19999999999999,-307.81120000000004 57.999999999999986,-292.72 62.79999999999998,-277.85920000000016 67.59999999999998,-263.22880000000015 72.39999999999998,-248.82880000000011 77.19999999999997,-234.65920000000006 81.99999999999997,-220.71999999999997 86.79999999999997,-207.0112000000001 91.59999999999997,-193.53280000000007 96.39999999999996,-180.28480000000008 101.19999999999996,-167.26720000000017 105.99999999999996,-154.48000000000013 110.79999999999995,-141.92320000000012 115.59999999999995,-129.5968000000001 120.39999999999995,-117.50080000000014 125.19999999999995,-105.63520000000017 129.99999999999994,-94.00000000000017 134.79999999999995,-82.59520000000009 139.59999999999997,-71.42080000000004 144.39999999999998,-60.476800000000054 149.2,-49.76320000000004 154.0,-39.28000000000003 158.8,-29.027199999999993 163.60000000000002,-19.004799999999932 168.40000000000003,-9.21279999999993 173.20000000000005,0.3488000000000966 178.00000000000006,9.680000000000092 182.80000000000007,18.780800000000113 187.60000000000008,27.65120000000016 192.4000000000001,36.291200000000146 197.2000000000001,44.70080000000016 202.0000000000001,52.880000000000194 206.80000000000013,60.8288000000002 211.60000000000014,68.5472000000002 216.40000000000015,76.03520000000023 221.20000000000016,83.29280000000024 226.00000000000017,90.32000000000023 230.80000000000018,97.11680000000025 235.6000000000002,103.68320000000026 240.4000000000002,110.01920000000025 245.20000000000022,116.12480000000028 250.00000000000023,122.00000000000027 254.80000000000024,127.64480000000027 259.60000000000025,133.0592000000003 264.40000000000026,138.2432000000003 269.2000000000003,143.19680000000028 274.0000000000003,147.92000000000027 278.8000000000003,152.41280000000026 283.6000000000003,156.67520000000025 288.4000000000003,160.70720000000026 293.20000000000033,164.50880000000026 298.00000000000034,168.08000000000024 302.80000000000035,171.42080000000024 307.60000000000036,174.53120000000024 312.4000000000004,177.4112000000002 317.2000000000004,180.0608000000002 322.0000000000004,182.4800000000002 326.8000000000004,184.66880000000018 331.6000000000004,186.62720000000016 336.40000000000043,188.35520000000014 341.20000000000044,189.85280000000012 346.00000000000045,191.12000000000012 350.80000000000047,192.1568000000001 355.6000000000005,192.96320000000006 360.4000000000005,193.53920000000005 365.2000000000005,193.8848 370.0000000000005,194.0 374.8000000000005,193.88479999999998 379.60000000000053,193.53919999999994 384.40000000000055,192.96319999999992 389.20000000000056,192.1567999999999 394.00000000000057,191.11999999999986 398.8000000000006,189.85279999999983 403.6000000000006,188.3551999999998 408.4000000000006,186.62719999999976 413.2000000000006,184.66879999999975 418.0000000000006,182.4799999999997 422.80000000000064,180.06079999999966 427.60000000000065,177.4111999999996 432.40000000000066,174.5311999999996 437.20000000000067,171.42079999999956 442.0000000000007,168.0799999999995 446.8000000000007,164.50879999999947 451.6000000000007,160.70719999999943 456.4000000000007,156.6751999999994 461.2000000000007,152.41279999999932 466.00000000000074,147.91999999999928 470.80000000000075,143.19679999999926 475.60000000000076,138.2431999999992 480.4000000000008,133.05919999999912 485.2000000000008,127.6447999999991" stroke="black" /><circle cx="370" cy="194" fill="none" r="3" stroke="#830" /></g></svg>