<?xml version="1.0" encoding="utf-8" ?>
<svg baseProfile="full" height="120" version="1.1" width="600" xmlns="http://www.w3.org/2000/svg" xmlns:ev="http://www.w3.org/2001/xml-events" xmlns:xlink="http://www.w3.org/1999/xlink"><defs /><g stroke="black" transform="translate(10,10)"><rect fill="rgb(255,191,127)" height="10" width="10" x="0" y="0" /><rect fill="rgb(255,191,127)" height="10" width="10" x="10" y="0" /><rect fill="rgb(255,191,127)" height="10" width="10" x="20" y="0" /><rect fill="rgb(255,191,127)" height="10" width="10" x="30" y="0" /><rect fill="rgb(255,191,127)" height="10" width="10" x="40" y="0" /><rect fill="rgb(255,191,127)" height="10" width="10" x="50" y="0" /><rect fill="rgb(255,191,127)" height="10" width="10" x="60" y="0" /><rect fill="rgb(255,191,127)" height="10" width="10" x="70" y="0" /><rect fill="rgb(255,191,127)" height="10" width="10" x="80" y="0" /><rect fill="rgb(255,191,127)" height="10" width="10" x="90" y="0" /><rect fill="rgb(255,191,127)" height="10" width="10" x="0" y="10" /><rect fill="rgb(255,191,127)" height="10" width="10" x="10" y="10" /><rect fill="rgb(100,75,50)" height="10" width="10" x="20" y="10" /><rect fill="rgb(255,191,127)" height="10" width="10" x="30" y="10" /><rect fill="rgb(255,191,127)" height="10" width="10" x="40" y="10" /><rect fill="rgb(255,191,127)" height="10" width="10" x="50" y="10" /><rect fill="rgb(255,191,127)" height="10" width="10" x="60" y="10" /><rect fill="rgb(100,75,50)" height="10" width="10" x="70" y="10" /><rect fill="rgb(255,191,127)" height="10" width="10" x="80" y="10" /><rect fill="rgb(255,191,127)" height="10" width="10" x="90" y="10" /><rect fill="rgb(255,191,127)" height="10" width="10" x="0" y="20" /><rect fill="rgb(255,191,127)" height="10" width="10" x="10" y="20" /><rect fill="rgb(255,191,127)" height="10" width="10" x="20" y="20" /><rect fill="rgb(100,75,50)" height="10" width="10" x="30" y="20" /><rect fill="rgb(255,191,127)" height="10" width="10" x="40" y="20" /><rect fill="rgb(255,191,127)" height="10" width="10" x="50" y="20" /><rect fill="rgb(100,75,50)" height="10" width="10" x="60" y="20" /><rect fill="rgb(255,191,127)" height="10" width="10" x="70" y="20" /><rect fill="rgb(255,191,127)" height="10" width="10" x="80" y="20" /><rect fill="rgb(255,191,127)" height="10" width="10" x="90" y="20" /><rect fill="rgb(255,191,127)" height="10" width="10" x="0" y="30" /><rect fill="rgb(255,191,127)" height="10" width="10" x="10" y="30" /><rect fill="rgb(100,75,50)" height="10" width="10" x="20" y="30" /><rect fill="rgb(100,75,50)" height="10" width="10" x="30" y="30" /><rect fill="rgb(100,75,50)" height="10" width="10" x="40" y="30" /><rect fill="rgb(100,75,50)" height="10" width="10" x="50" y="30" /><rect fill="rgb(100,75,50)" height="10" width="10" x="60" y="30" /><rect fill="rgb(100,75,50)" height="10" width="10" x="70" y="30" /><rect fill="rgb(255,191,127)" height="10" width="10" x="80" y="30" /><rect fill="rgb(255,191,127)" height="10" width="10" x="90" y="30" /><rect fill="rgb(255,191,127)" height="10" width="10" x="0" y="40" /><rect fill="rgb(100,75,50)" height="10" width="10" x="10" y="40" /><rect fill="rgb(100,75,50)" height="10" width="10" x="20" y="40" /><rect fill="rgb(255,191,127)" height="10" width="10" x="30" y="40" /><rect fill="rgb(100,75,50)" height="10" width="10" x="40" y="40" /><rect fill="rgb(100,75,50)" height="10" width="10" x="50" y="40" /><rect fill="rgb(255,191,127)" height="10" width="10" x="60" y="40" /><rect fill="rgb(100,75,50)" height="10" width="10" x="70" y="40" /><rect fill="rgb(100,75,50)" height="10" width="10" x="80" y="40" /><rect fill="rgb(255,191,127)" height="10" width="10" x="90" y="40" /><rect fill="rgb(100,75,50)" height="10" width="10" x="0" y="50" /><rect fill="rgb(100,75,50)" height="10" width="10" x="10" y="50" /><rect fill="rgb(100,75,50)" height="10" width="10" x="20" y="50" /><rect fill="rgb(100,75,50)" height="10" width="10" x="30" y="50" /><rect fill="rgb(100,75,50)" height="10" width="10" x="40" y="50" /><rect fill="rgb(100,75,50)" height="10" width="10" x="50" y="50" /><rect fill="rgb(100,75,50)" height="10" width="10" x="60" y="50" /><rect fill="rgb(100,75,50)" height="10" width="10" x="70" y="50" /><rect fill="rgb(100,75,50)" height="10" width="10" x="80" y="50" /><rect fill="rgb(100,75,50)" height="10" width="10" x="90" y="50" /><rect fill="rgb(100,75,50)" height="10" width="10" x="0" y="60" /><rect fill="rgb(255,191,127)" height="10" width="10" x="10" y="60" /><rect fill="rgb(100,75,50)" height="10" width="10" x="20" y="60" /><rect fill="rgb(100,75,50)" height="10" width="10" x="30" y="60" /><rect fill="rgb(100,75,50)" height="10" width="10" x="40" y="60" /><rect fill="rgb(100,75,50)" height="10" width="10" x="50" y="60" /><rect fill="rgb(100,75,50)" height="10" width="10" x="60" y="60" /><rect fill="rgb(100,75,50)" height="10" width="10" x="70" y="60" /><rect fill="rgb(255,191,127)" height="10" width="10" x="80" y="60" /><rect fill="rgb(100,75,50)" height="10" width="10" x="90" y="60" /><rect fill="rgb(100,75,50)" height="10" width="10" x="0" y="70" /><rect fill="rgb(255,191,127)" height="10" width="10" x="10" y="70" /><rect fill="rgb(100,75,50)" height="10" width="10" x="20" y="70" /><rect fill="rgb(255,191,127)" height="10" width="10" x="30" y="70" /><rect fill="rgb(255,191,127)" height="10" width="10" x="40" y="70" /><rect fill="rgb(255,191,127)" height="10" width="10" x="50" y="70" /><rect fill="rgb(255,191,127)" height="10" width="10" x="60" y="70" /><rect fill="rgb(100,75,50)" height="10" width="10" x="70" y="70" /><rect fill="rgb(255,191,127)" height="10" width="10" x="80" y="70" /><rect fill="rgb(100,75,50)" height="10" width="10" x="90" y="70" /><rect fill="rgb(255,191,127)" height="10" width="10" x="0" y="80" /><rect fill="rgb(255,191,127)" height="10" width="10" x="10" y="80" /><rect fill="rgb(255,191,127)" height="10" width="10" x="20" y="80" /><rect fill="rgb(100,75,50)" height="10" width="10" x="30" y="80" /><rect fill="rgb(100,75,50)" height="10" width="10" x="40" y="80" /><rect fill="rgb(100,75,50)" height="10" width="10" x="50" y="80" /><rect fill="rgb(100,75,50)" height="10" width="10" x="60" y="80" /><rect fill="rgb(255,191,127)" height="10" width="10" x="70" y="80" /><rect fill="rgb(255,191,127)" height="10" width="10" x="80" y="80" /><rect fill="rgb(255,191,127)" height="10" width="10" x="90" y="80" /><rect fill="rgb(255,191,127)" height="10" width="10" x="0" y="90" /><rect fill="rgb(255,191,127)" height="10" width="10" x="10" y="90" /><rect fill="rgb(255,191,127)" height="10" width="10" x="20" y="90" /><rect fill="rgb(255,191,127)" height="10" width="10" x="30" y="90" /><rect fill="rgb(255,191,127)" height="10" width="10" x="40" y="90" /><rect fill="rgb(255,191,127)" height="10" width="10" x="50" y="90" /><rect fill="rgb(255,191,127)" height="10" width="10" x="60" y="90" /><rect fill="rgb(255,191,127)" height="10" width="10" x="70" y="90" /><rect fill="rgb(255,191,127)" height="10" width="10" x="80" y="90" /><rect fill="rgb(255,191,127)" height="10" width="10" x="90" y="90" /><line x1="0" x2="100" y1="0" y2="0" /><line x1="0" x2="100" y1="10" y2="10" /><line x1="0" x2="100" y1="20" y2="20" /><line x1="0" x2="100" y1="30" y2="30" /><line x1="0" x2="100" y1="40" y2="40" /><line x1="0" x2="100" y1="50" y2="50" /><line x1="0" x2="100" y1="60" y2="60" /><line x1="0" x2="100" y1="70" y2="70" /><line x1="0" x2="100" y1="80" y2="80" /><line x1="0" x2="100" y1="90" y2="90" /><line x1="0" x2="100" y1="100" y2="100" /><line x1="0" x2="0" y1="0" y2="100" /><line x1="10" x2="10" y1="0" y2="100" /><line x1="20" x2="20" y1="0" y2="100" /><line x1="30" x2="30" y1="0" y2="100" /><line x1="40" x2="40" y1="0" y2="100" /><line x1="50" x2="50" y1="0" y2="100" /><line x1="60" x2="60" y1="0" y2="100" /><line x1="70" x2="70" y1="0" y2="100" /><line x1="80" x2="80" y1="0" y2="100" /><line x1="90" x2="90" y1="0" y2="100" /><line x1="100" x2="100" y1="0" y2="100" /><line stroke-linecap="round" stroke-width="3" x1="105" x2="115" y1="50" y2="50" /><line stroke-linecap="round" stroke-width="3" x1="110" x2="115" y1="45" y2="50" /><line stroke-linecap="round" stroke-width="3" x1="110" x2="115" y1="55" y2="50" /></g><g stroke="black" transform="translate(130,10)"><rect fill="rgb(255,191,127)" height="10" width="10" x="0" y="0" /><rect fill="rgb(255,191,127)" height="10" width="10" x="10" y="0" /><rect fill="rgb(255,191,127)" height="10" width="10" x="20" y="0" /><rect fill="rgb(255,191,127)" height="10" width="10" x="30" y="0" /><rect fill="rgb(255,191,127)" height="10" width="10" x="40" y="0" /><rect fill="rgb(255,191,127)" height="10" width="10" x="50" y="0" /><rect fill="rgb(255,191,127)" height="10" width="10" x="60" y="0" /><rect fill="rgb(255,191,127)" height="10" width="10" x="70" y="0" /><rect fill="rgb(255,191,127)" height="10" width="10" x="80" y="0" /><rect fill="rgb(255,191,127)" height="10" width="10" x="90" y="0" /><rect fill="rgb(224,168,112)" height="10" width="10" x="0" y="10" /><rect fill="rgb(131,98,65)" height="10" width="10" x="10" y="10" /><rect fill="rgb(100,75,50)" height="10" width="10" x="20" y="10" /><rect fill="rgb(131,98,65)" height="10" width="10" x="30" y="10" /><rect fill="rgb(224,168,112)" height="10" width="10" x="40" y="10" /><rect fill="rgb(224,168,112)" height="10" width="10" x="50" y="10" /><rect fill="rgb(131,98,65)" height="10" width="10" x="60" y="10" /><rect fill="rgb(100,75,50)" height="10" width="10" x="70" y="10" /><rect fill="rgb(131,98,65)" height="10" width="10" x="80" y="10" /><rect fill="rgb(224,168,112)" height="10" width="10" x="90" y="10" /><rect fill="rgb(255,191,127)" height="10" width="10" x="0" y="20" /><rect fill="rgb(224,168,112)" height="10" width="10" x="10" y="20" /><rect fill="rgb(131,98,65)" height="10" width="10" x="20" y="20" /><rect fill="rgb(100,75,50)" height="10" width="10" x="30" y="20" /><rect fill="rgb(131,98,65)" height="10" width="10" x="40" y="20" /><rect fill="rgb(131,98,65)" height="10" width="10" x="50" y="20" /><rect fill="rgb(100,75,50)" height="10" width="10" x="60" y="20" /><rect fill="rgb(131,98,65)" height="10" width="10" x="70" y="20" /><rect fill="rgb(224,168,112)" height="10" width="10" x="80" y="20" /><rect fill="rgb(255,191,127)" height="10" width="10" x="90" y="20" /><rect fill="rgb(224,168,112)" height="10" width="10" x="0" y="30" /><rect fill="rgb(131,98,65)" height="10" width="10" x="10" y="30" /><rect fill="rgb(100,75,50)" height="10" width="10" x="20" y="30" /><rect fill="rgb(100,75,50)" height="10" width="10" x="30" y="30" /><rect fill="rgb(100,75,50)" height="10" width="10" x="40" y="30" /><rect fill="rgb(100,75,50)" height="10" width="10" x="50" y="30" /><rect fill="rgb(100,75,50)" height="10" width="10" x="60" y="30" /><rect fill="rgb(100,75,50)" height="10" width="10" x="70" y="30" /><rect fill="rgb(131,98,65)" height="10" width="10" x="80" y="30" /><rect fill="rgb(224,168,112)" height="10" width="10" x="90" y="30" /><rect fill="rgb(131,98,65)" height="10" width="10" x="0" y="40" /><rect fill="rgb(100,75,50)" height="10" width="10" x="10" y="40" /><rect fill="rgb(100,75,50)" height="10" width="10" x="20" y="40" /><rect fill="rgb(131,98,65)" height="10" width="10" x="30" y="40" /><rect fill="rgb(100,75,50)" height="10" width="10" x="40" y="40" /><rect fill="rgb(100,75,50)" height="10" width="10" x="50" y="40" /><rect fill="rgb(131,98,65)" height="10" width="10" x="60" y="40" /><rect fill="rgb(100,75,50)" height="10" width="10" x="70" y="40" /><rect fill="rgb(100,75,50)" height="10" width="10" x="80" y="40" /><rect fill="rgb(131,98,65)" height="10" width="10" x="90" y="40" /><rect fill="rgb(100,75,50)" height="10" width="10" x="0" y="50" /><rect fill="rgb(100,75,50)" height="10" width="10" x="10" y="50" /><rect fill="rgb(100,75,50)" height="10" width="10" x="20" y="50" /><rect fill="rgb(100,75,50)" height="10" width="10" x="30" y="50" /><rect fill="rgb(100,75,50)" height="10" width="10" x="40" y="50" /><rect fill="rgb(100,75,50)" height="10" width="10" x="50" y="50" /><rect fill="rgb(100,75,50)" height="10" width="10" x="60" y="50" /><rect fill="rgb(100,75,50)" height="10" width="10" x="70" y="50" /><rect fill="rgb(100,75,50)" height="10" width="10" x="80" y="50" /><rect fill="rgb(100,75,50)" height="10" width="10" x="90" y="50" /><rect fill="rgb(100,75,50)" height="10" width="10" x="0" y="60" /><rect fill="rgb(131,98,65)" height="10" width="10" x="10" y="60" /><rect fill="rgb(100,75,50)" height="10" width="10" x="20" y="60" /><rect fill="rgb(100,75,50)" height="10" width="10" x="30" y="60" /><rect fill="rgb(100,75,50)" height="10" width="10" x="40" y="60" /><rect fill="rgb(100,75,50)" height="10" width="10" x="50" y="60" /><rect fill="rgb(100,75,50)" height="10" width="10" x="60" y="60" /><rect fill="rgb(100,75,50)" height="10" width="10" x="70" y="60" /><rect fill="rgb(131,98,65)" height="10" width="10" x="80" y="60" /><rect fill="rgb(100,75,50)" height="10" width="10" x="90" y="60" /><rect fill="rgb(100,75,50)" height="10" width="10" x="0" y="70" /><rect fill="rgb(131,98,65)" height="10" width="10" x="10" y="70" /><rect fill="rgb(100,75,50)" height="10" width="10" x="20" y="70" /><rect fill="rgb(131,98,65)" height="10" width="10" x="30" y="70" /><rect fill="rgb(224,168,112)" height="10" width="10" x="40" y="70" /><rect fill="rgb(224,168,112)" height="10" width="10" x="50" y="70" /><rect fill="rgb(131,98,65)" height="10" width="10" x="60" y="70" /><rect fill="rgb(100,75,50)" height="10" width="10" x="70" y="70" /><rect fill="rgb(131,98,65)" height="10" width="10" x="80" y="70" /><rect fill="rgb(100,75,50)" height="10" width="10" x="90" y="70" /><rect fill="rgb(255,191,127)" height="10" width="10" x="0" y="80" /><rect fill="rgb(224,168,112)" height="10" width="10" x="10" y="80" /><rect fill="rgb(131,98,65)" height="10" width="10" x="20" y="80" /><rect fill="rgb(100,75,50)" height="10" width="10" x="30" y="80" /><rect fill="rgb(100,75,50)" height="10" width="10" x="40" y="80" /><rect fill="rgb(100,75,50)" height="10" width="10" x="50" y="80" /><rect fill="rgb(100,75,50)" height="10" width="10" x="60" y="80" /><rect fill="rgb(131,98,65)" height="10" width="10" x="70" y="80" /><rect fill="rgb(224,168,112)" height="10" width="10" x="80" y="80" /><rect fill="rgb(255,191,127)" height="10" width="10" x="90" y="80" /><rect fill="rgb(255,191,127)" height="10" width="10" x="0" y="90" /><rect fill="rgb(255,191,127)" height="10" width="10" x="10" y="90" /><rect fill="rgb(255,191,127)" height="10" width="10" x="20" y="90" /><rect fill="rgb(255,191,127)" height="10" width="10" x="30" y="90" /><rect fill="rgb(255,191,127)" height="10" width="10" x="40" y="90" /><rect fill="rgb(255,191,127)" height="10" width="10" x="50" y="90" /><rect fill="rgb(255,191,127)" height="10" width="10" x="60" y="90" /><rect fill="rgb(255,191,127)" height="10" width="10" x="70" y="90" /><rect fill="rgb(255,191,127)" height="10" width="10" x="80" y="90" /><rect fill="rgb(255,191,127)" height="10" width="10" x="90" y="90" /><line x1="0" x2="100" y1="0" y2="0" /><line x1="0" x2="100" y1="10" y2="10" /><line x1="0" x2="100" y1="20" y2="20" /><line x1="0" x2="100" y1="30" y2="30" /><line x1="0" x2="100" y1="40" y2="40" /><line x1="0" x2="100" y1="50" y2="50" /><line x1="0" x2="100" y1="60" y2="60" /><line x1="0" x2="100" y1="70" y2="70" /><line x1="0" x2="100" y1="80" y2="80" /><line x1="0" x2="100" y1="90" y2="90" /><line x1="0" x2="100" y1="100" y2="100" /><line x1="0" x2="0" y1="0" y2="100" /><line x1="10" x2="10" y1="0" y2="100" /><line x1="20" x2="20" y1="0" y2="100" /><line x1="30" x2="30" y1="0" y2="100" /><line x1="40" x2="40" y1="0" y2="100" /><line x1="50" x2="50" y1="0" y2="100" /><line x1="60" x2="60" y1="0" y2="100" /><line x1="70" x2="70" y1="0" y2="100" /><line x1="80" x2="80" y1="0" y2="100" /><line x1="90" x2="90" y1="0" y2="100" /><line x1="100" x2="100" y1="0" y2="100" /><line stroke-linecap="round" stroke-width="3" x1="105" x2="115" y1="50" y2="50" /><line stroke-linecap="round" stroke-width="3" x1="110" x2="115" y1="45" y2="50" /><line stroke-linecap="round" stroke-width="3" x1="110" x2="115" y1="55" y2="50" /></g><g stroke="black" transform="translate(250,10)"><rect fill="rgb(255,191,127)" height="10" width="10" x="0" y="0" /><rect fill="rgb(224,168,112)" height="10" width="10" x="10" y="0" /><rect fill="rgb(255,191,127)" height="10" width="10" x="20" y="0" /><rect fill="rgb(224,168,112)" height="10" width="10" x="30" y="0" /><rect fill="rgb(131,98,65)" height="10" width="10" x="40" y="0" /><rect fill="rgb(100,75,50)" height="10" width="10" x="50" y="0" /><rect fill="rgb(100,75,50)" height="10" width="10" x="60" y="0" /><rect fill="rgb(100,75,50)" height="10" width="10" x="70" y="0" /><rect fill="rgb(255,191,127)" height="10" width="10" x="80" y="0" /><rect fill="rgb(255,191,127)" height="10" width="10" x="90" y="0" /><rect fill="rgb(255,191,127)" height="10" width="10" x="0" y="10" /><rect fill="rgb(131,98,65)" height="10" width="10" x="10" y="10" /><rect fill="rgb(224,168,112)" height="10" width="10" x="20" y="10" /><rect fill="rgb(131,98,65)" height="10" width="10" x="30" y="10" /><rect fill="rgb(100,75,50)" height="10" width="10" x="40" y="10" /><rect fill="rgb(100,75,50)" height="10" width="10" x="50" y="10" /><rect fill="rgb(131,98,65)" height="10" width="10" x="60" y="10" /><rect fill="rgb(131,98,65)" height="10" width="10" x="70" y="10" /><rect fill="rgb(224,168,112)" height="10" width="10" x="80" y="10" /><rect fill="rgb(255,191,127)" height="10" width="10" x="90" y="10" /><rect fill="rgb(255,191,127)" height="10" width="10" x="0" y="20" /><rect fill="rgb(100,75,50)" height="10" width="10" x="10" y="20" /><rect fill="rgb(131,98,65)" height="10" width="10" x="20" y="20" /><rect fill="rgb(100,75,50)" height="10" width="10" x="30" y="20" /><rect fill="rgb(100,75,50)" height="10" width="10" x="40" y="20" /><rect fill="rgb(100,75,50)" height="10" width="10" x="50" y="20" /><rect fill="rgb(100,75,50)" height="10" width="10" x="60" y="20" /><rect fill="rgb(100,75,50)" height="10" width="10" x="70" y="20" /><rect fill="rgb(131,98,65)" height="10" width="10" x="80" y="20" /><rect fill="rgb(255,191,127)" height="10" width="10" x="90" y="20" /><rect fill="rgb(255,191,127)" height="10" width="10" x="0" y="30" /><rect fill="rgb(131,98,65)" height="10" width="10" x="10" y="30" /><rect fill="rgb(100,75,50)" height="10" width="10" x="20" y="30" /><rect fill="rgb(100,75,50)" height="10" width="10" x="30" y="30" /><rect fill="rgb(131,98,65)" height="10" width="10" x="40" y="30" /><rect fill="rgb(100,75,50)" height="10" width="10" x="50" y="30" /><rect fill="rgb(100,75,50)" height="10" width="10" x="60" y="30" /><rect fill="rgb(131,98,65)" height="10" width="10" x="70" y="30" /><rect fill="rgb(100,75,50)" height="10" width="10" x="80" y="30" /><rect fill="rgb(255,191,127)" height="10" width="10" x="90" y="30" /><rect fill="rgb(255,191,127)" height="10" width="10" x="0" y="40" /><rect fill="rgb(224,168,112)" height="10" width="10" x="10" y="40" /><rect fill="rgb(131,98,65)" height="10" width="10" x="20" y="40" /><rect fill="rgb(100,75,50)" height="10" width="10" x="30" y="40" /><rect fill="rgb(100,75,50)" height="10" width="10" x="40" y="40" /><rect fill="rgb(100,75,50)" height="10" width="10" x="50" y="40" /><rect fill="rgb(100,75,50)" height="10" width="10" x="60" y="40" /><rect fill="rgb(224,168,112)" height="10" width="10" x="70" y="40" /><rect fill="rgb(100,75,50)" height="10" width="10" x="80" y="40" /><rect fill="rgb(255,191,127)" height="10" width="10" x="90" y="40" /><rect fill="rgb(255,191,127)" height="10" width="10" x="0" y="50" /><rect fill="rgb(224,168,112)" height="10" width="10" x="10" y="50" /><rect fill="rgb(131,98,65)" height="10" width="10" x="20" y="50" /><rect fill="rgb(100,75,50)" height="10" width="10" x="30" y="50" /><rect fill="rgb(100,75,50)" height="10" width="10" x="40" y="50" /><rect fill="rgb(100,75,50)" height="10" width="10" x="50" y="50" /><rect fill="rgb(100,75,50)" height="10" width="10" x="60" y="50" /><rect fill="rgb(224,168,112)" height="10" width="10" x="70" y="50" /><rect fill="rgb(100,75,50)" height="10" width="10" x="80" y="50" /><rect fill="rgb(255,191,127)" height="10" width="10" x="90" y="50" /><rect fill="rgb(255,191,127)" height="10" width="10" x="0" y="60" /><rect fill="rgb(131,98,65)" height="10" width="10" x="10" y="60" /><rect fill="rgb(100,75,50)" height="10" width="10" x="20" y="60" /><rect fill="rgb(100,75,50)" height="10" width="10" x="30" y="60" /><rect fill="rgb(131,98,65)" height="10" width="10" x="40" y="60" /><rect fill="rgb(100,75,50)" height="10" width="10" x="50" y="60" /><rect fill="rgb(100,75,50)" height="10" width="10" x="60" y="60" /><rect fill="rgb(131,98,65)" height="10" width="10" x="70" y="60" /><rect fill="rgb(100,75,50)" height="10" width="10" x="80" y="60" /><rect fill="rgb(255,191,127)" height="10" width="10" x="90" y="60" /><rect fill="rgb(255,191,127)" height="10" width="10" x="0" y="70" /><rect fill="rgb(100,75,50)" height="10" width="10" x="10" y="70" /><rect fill="rgb(131,98,65)" height="10" width="10" x="20" y="70" /><rect fill="rgb(100,75,50)" height="10" width="10" x="30" y="70" /><rect fill="rgb(100,75,50)" height="10" width="10" x="40" y="70" /><rect fill="rgb(100,75,50)" height="10" width="10" x="50" y="70" /><rect fill="rgb(100,75,50)" height="10" width="10" x="60" y="70" /><rect fill="rgb(100,75,50)" height="10" width="10" x="70" y="70" /><rect fill="rgb(131,98,65)" height="10" width="10" x="80" y="70" /><rect fill="rgb(255,191,127)" height="10" width="10" x="90" y="70" /><rect fill="rgb(255,191,127)" height="10" width="10" x="0" y="80" /><rect fill="rgb(131,98,65)" height="10" width="10" x="10" y="80" /><rect fill="rgb(224,168,112)" height="10" width="10" x="20" y="80" /><rect fill="rgb(131,98,65)" height="10" width="10" x="30" y="80" /><rect fill="rgb(100,75,50)" height="10" width="10" x="40" y="80" /><rect fill="rgb(100,75,50)" height="10" width="10" x="50" y="80" /><rect fill="rgb(131,98,65)" height="10" width="10" x="60" y="80" /><rect fill="rgb(131,98,65)" height="10" width="10" x="70" y="80" /><rect fill="rgb(224,168,112)" height="10" width="10" x="80" y="80" /><rect fill="rgb(255,191,127)" height="10" width="10" x="90" y="80" /><rect fill="rgb(255,191,127)" height="10" width="10" x="0" y="90" /><rect fill="rgb(224,168,112)" height="10" width="10" x="10" y="90" /><rect fill="rgb(255,191,127)" height="10" width="10" x="20" y="90" /><rect fill="rgb(224,168,112)" height="10" width="10" x="30" y="90" /><rect fill="rgb(131,98,65)" height="10" width="10" x="40" y="90" /><rect fill="rgb(100,75,50)" height="10" width="10" x="50" y="90" /><rect fill="rgb(100,75,50)" height="10" width="10" x="60" y="90" /><rect fill="rgb(100,75,50)" height="10" width="10" x="70" y="90" /><rect fill="rgb(255,191,127)" height="10" width="10" x="80" y="90" /><rect fill="rgb(255,191,127)" height="10" width="10" x="90" y="90" /><line x1="0" x2="100" y1="0" y2="0" /><line x1="0" x2="100" y1="10" y2="10" /><line x1="0" x2="100" y1="20" y2="20" /><line x1="0" x2="100" y1="30" y2="30" /><line x1="0" x2="100" y1="40" y2="40" /><line x1="0" x2="100" y1="50" y2="50" /><line x1="0" x2="100" y1="60" y2="60" /><line x1="0" x2="100" y1="70" y2="70" /><line x1="0" x2="100" y1="80" y2="80" /><line x1="0" x2="100" y1="90" y2="90" /><line x1="0" x2="100" y1="100" y2="100" /><line x1="0" x2="0" y1="0" y2="100" /><line x1="10" x2="10" y1="0" y2="100" /><line x1="20" x2="20" y1="0" y2="100" /><line x1="30" x2="30" y1="0" y2="100" /><line x1="40" x2="40" y1="0" y2="100" /><line x1="50" x2="50" y1="0" y2="100" /><line x1="60" x2="60" y1="0" y2="100" /><line x1="70" x2="70" y1="0" y2="100" /><line x1="80" x2="80" y1="0" y2="100" /><line x1="90" x2="90" y1="0" y2="100" /><line x1="100" x2="100" y1="0" y2="100" /><line stroke-linecap="round" stroke-width="3" x1="105" x2="115" y1="50" y2="50" /><line stroke-linecap="round" stroke-width="3" x1="110" x2="115" y1="45" y2="50" /><line stroke-linecap="round" stroke-width="3" x1="110" x2="115" y1="55" y2="50" /></g><g stroke="black" transform="translate(370,10)"><rect fill="rgb(255,191,127)" height="10" width="10" x="0" y="0" /><rect fill="rgb(224,168,112)" height="10" width="10" x="10" y="0" /><rect fill="rgb(255,191,127)" height="10" width="10" x="20" y="0" /><rect fill="rgb(162,121,81)" height="10" width="10" x="30" y="0" /><rect fill="rgb(131,98,65)" height="10" width="10" x="40" y="0" /><rect fill="rgb(100,75,50)" height="10" width="10" x="50" y="0" /><rect fill="rgb(100,75,50)" height="10" width="10" x="60" y="0" /><rect fill="rgb(100,75,50)" height="10" width="10" x="70" y="0" /><rect fill="rgb(131,98,65)" height="10" width="10" x="80" y="0" /><rect fill="rgb(224,168,112)" height="10" width="10" x="90" y="0" /><rect fill="rgb(162,121,81)" height="10" width="10" x="0" y="10" /><rect fill="rgb(131,98,65)" height="10" width="10" x="10" y="10" /><rect fill="rgb(162,121,81)" height="10" width="10" x="20" y="10" /><rect fill="rgb(131,98,65)" height="10" width="10" x="30" y="10" /><rect fill="rgb(100,75,50)" height="10" width="10" x="40" y="10" /><rect fill="rgb(100,75,50)" height="10" width="10" x="50" y="10" /><rect fill="rgb(131,98,65)" height="10" width="10" x="60" y="10" /><rect fill="rgb(131,98,65)" height="10" width="10" x="70" y="10" /><rect fill="rgb(162,121,81)" height="10" width="10" x="80" y="10" /><rect fill="rgb(255,191,127)" height="10" width="10" x="90" y="10" /><rect fill="rgb(131,98,65)" height="10" width="10" x="0" y="20" /><rect fill="rgb(100,75,50)" height="10" width="10" x="10" y="20" /><rect fill="rgb(131,98,65)" height="10" width="10" x="20" y="20" /><rect fill="rgb(100,75,50)" height="10" width="10" x="30" y="20" /><rect fill="rgb(100,75,50)" height="10" width="10" x="40" y="20" /><rect fill="rgb(100,75,50)" height="10" width="10" x="50" y="20" /><rect fill="rgb(100,75,50)" height="10" width="10" x="60" y="20" /><rect fill="rgb(100,75,50)" height="10" width="10" x="70" y="20" /><rect fill="rgb(131,98,65)" height="10" width="10" x="80" y="20" /><rect fill="rgb(162,121,81)" height="10" width="10" x="90" y="20" /><rect fill="rgb(162,121,81)" height="10" width="10" x="0" y="30" /><rect fill="rgb(131,98,65)" height="10" width="10" x="10" y="30" /><rect fill="rgb(100,75,50)" height="10" width="10" x="20" y="30" /><rect fill="rgb(100,75,50)" height="10" width="10" x="30" y="30" /><rect fill="rgb(131,98,65)" height="10" width="10" x="40" y="30" /><rect fill="rgb(100,75,50)" height="10" width="10" x="50" y="30" /><rect fill="rgb(100,75,50)" height="10" width="10" x="60" y="30" /><rect fill="rgb(131,98,65)" height="10" width="10" x="70" y="30" /><rect fill="rgb(100,75,50)" height="10" width="10" x="80" y="30" /><rect fill="rgb(131,98,65)" height="10" width="10" x="90" y="30" /><rect fill="rgb(255,191,127)" height="10" width="10" x="0" y="40" /><rect fill="rgb(162,121,81)" height="10" width="10" x="10" y="40" /><rect fill="rgb(131,98,65)" height="10" width="10" x="20" y="40" /><rect fill="rgb(100,75,50)" height="10" width="10" x="30" y="40" /><rect fill="rgb(100,75,50)" height="10" width="10" x="40" y="40" /><rect fill="rgb(100,75,50)" height="10" width="10" x="50" y="40" /><rect fill="rgb(100,75,50)" height="10" width="10" x="60" y="40" /><rect fill="rgb(131,98,65)" height="10" width="10" x="70" y="40" /><rect fill="rgb(100,75,50)" height="10" width="10" x="80" y="40" /><rect fill="rgb(131,98,65)" height="10" width="10" x="90" y="40" /><rect fill="rgb(255,191,127)" height="10" width="10" x="0" y="50" /><rect fill="rgb(162,121,81)" height="10" width="10" x="10" y="50" /><rect fill="rgb(131,98,65)" height="10" width="10" x="20" y="50" /><rect fill="rgb(100,75,50)" height="10" width="10" x="30" y="50" /><rect fill="rgb(100,75,50)" height="10" width="10" x="40" y="50" /><rect fill="rgb(100,75,50)" height="10" width="10" x="50" y="50" /><rect fill="rgb(100,75,50)" height="10" width="10" x="60" y="50" /><rect fill="rgb(131,98,65)" height="10" width="10" x="70" y="50" /><rect fill="rgb(100,75,50)" height="10" width="10" x="80" y="50" /><rect fill="rgb(131,98,65)" height="10" width="10" x="90" y="50" /><rect fill="rgb(162,121,81)" height="10" width="10" x="0" y="60" /><rect fill="rgb(131,98,65)" height="10" width="10" x="10" y="60" /><rect fill="rgb(100,75,50)" height="10" width="10" x="20" y="60" /><rect fill="rgb(100,75,50)" height="10" width="10" x="30" y="60" /><rect fill="rgb(131,98,65)" height="10" width="10" x="40" y="60" /><rect fill="rgb(100,75,50)" height="10" width="10" x="50" y="60" /><rect fill="rgb(100,75,50)" height="10" width="10" x="60" y="60" /><rect fill="rgb(131,98,65)" height="10" width="10" x="70" y="60" /><rect fill="rgb(100,75,50)" height="10" width="10" x="80" y="60" /><rect fill="rgb(131,98,65)" height="10" width="10" x="90" y="60" /><rect fill="rgb(131,98,65)" height="10" width="10" x="0" y="70" /><rect fill="rgb(100,75,50)" height="10" width="10" x="10" y="70" /><rect fill="rgb(131,98,65)" height="10" width="10" x="20" y="70" /><rect fill="rgb(100,75,50)" height="10" width="10" x="30" y="70" /><rect fill="rgb(100,75,50)" height="10" width="10" x="40" y="70" /><rect fill="rgb(100,75,50)" height="10" width="10" x="50" y="70" /><rect fill="rgb(100,75,50)" height="10" width="10" x="60" y="70" /><rect fill="rgb(100,75,50)" height="10" width="10" x="70" y="70" /><rect fill="rgb(131,98,65)" height="10" width="10" x="80" y="70" /><rect fill="rgb(162,121,81)" height="10" width="10" x="90" y="70" /><rect fill="rgb(162,121,81)" height="10" width="10" x="0" y="80" /><rect fill="rgb(131,98,65)" height="10" width="10" x="10" y="80" /><rect fill="rgb(162,121,81)" height="10" width="10" x="20" y="80" /><rect fill="rgb(131,98,65)" height="10" width="10" x="30" y="80" /><rect fill="rgb(100,75,50)" height="10" width="10" x="40" y="80" /><rect fill="rgb(100,75,50)" height="10" width="10" x="50" y="80" /><rect fill="rgb(131,98,65)" height="10" width="10" x="60" y="80" /><rect fill="rgb(131,98,65)" height="10" width="10" x="70" y="80" /><rect fill="rgb(162,121,81)" height="10" width="10" x="80" y="80" /><rect fill="rgb(255,191,127)" height="10" width="10" x="90" y="80" /><rect fill="rgb(255,191,127)" height="10" width="10" x="0" y="90" /><rect fill="rgb(224,168,112)" height="10" width="10" x="10" y="90" /><rect fill="rgb(255,191,127)" height="10" width="10" x="20" y="90" /><rect fill="rgb(162,121,81)" height="10" width="10" x="30" y="90" /><rect fill="rgb(131,98,65)" height="10" width="10" x="40" y="90" /><rect fill="rgb(100,75,50)" height="10" width="10" x="50" y="90" /><rect fill="rgb(100,75,50)" height="10" width="10" x="60" y="90" /><rect fill="rgb(100,75,50)" height="10" width="10" x="70" y="90" /><rect fill="rgb(131,98,65)" height="10" width="10" x="80" y="90" /><rect fill="rgb(224,168,112)" height="10" width="10" x="90" y="90" /><line x1="0" x2="100" y1="0" y2="0" /><line x1="0" x2="100" y1="10" y2="10" /><line x1="0" x2="100" y1="20" y2="20" /><line x1="0" x2="100" y1="30" y2="30" /><line x1="0" x2="100" y1="40" y2="40" /><line x1="0" x2="100" y1="50" y2="50" /><line x1="0" x2="100" y1="60" y2="60" /><line x1="0" x2="100" y1="70" y2="70" /><line x1="0" x2="100" y1="80" y2="80" /><line x1="0" x2="100" y1="90" y2="90" /><line x1="0" x2="100" y1="100" y2="100" /><line x1="0" x2="0" y1="0" y2="100" /><line x1="10" x2="10" y1="0" y2="100" /><line x1="20" x2="20" y1="0" y2="100" /><line x1="30" x2="30" y1="0" y2="100" /><line x1="40" x2="40" y1="0" y2="100" /><line x1="50" x2="50" y1="0" y2="100" /><line x1="60" x2="60" y1="0" y2="100" /><line x1="70" x2="70" y1="0" y2="100" /><line x1="80" x2="80" y1="0" y2="100" /><line x1="90" x2="90" y1="0" y2="100" /><line x1="100" x2="100" y1="0" y2="100" /><line stroke-linecap="round" stroke-width="3" x1="105" x2="115" y1="50" y2="50" /><line stroke-linecap="round" stroke-width="3" x1="110" x2="115" y1="45" y2="50" /><line stroke-linecap="round" stroke-width="3" x1="110" x2="115" y1="55" y2="50" /></g><g stroke="black" transform="translate(490,10)"><rect fill="rgb(255,191,127)" height="10" width="10" x="0" y="0" /><rect fill="rgb(162,121,81)" height="10" width="10" x="10" y="0" /><rect fill="rgb(131,98,65)" height="10" width="10" x="20" y="0" /><rect fill="rgb(162,121,81)" height="10" width="10" x="30" y="0" /><rect fill="rgb(255,191,127)" height="10" width="10" x="40" y="0" /><rect fill="rgb(255,191,127)" height="10" width="10" x="50" y="0" /><rect fill="rgb(162,121,81)" height="10" width="10" x="60" y="0" /><rect fill="rgb(131,98,65)" height="10" width="10" x="70" y="0" /><rect fill="rgb(162,121,81)" height="10" width="10" x="80" y="0" /><rect fill="rgb(255,191,127)" height="10" width="10" x="90" y="0" /><rect fill="rgb(224,168,112)" height="10" width="10" x="0" y="10" /><rect fill="rgb(131,98,65)" height="10" width="10" x="10" y="10" /><rect fill="rgb(100,75,50)" height="10" width="10" x="20" y="10" /><rect fill="rgb(131,98,65)" height="10" width="10" x="30" y="10" /><rect fill="rgb(162,121,81)" height="10" width="10" x="40" y="10" /><rect fill="rgb(162,121,81)" height="10" width="10" x="50" y="10" /><rect fill="rgb(131,98,65)" height="10" width="10" x="60" y="10" /><rect fill="rgb(100,75,50)" height="10" width="10" x="70" y="10" /><rect fill="rgb(131,98,65)" height="10" width="10" x="80" y="10" /><rect fill="rgb(224,168,112)" height="10" width="10" x="90" y="10" /><rect fill="rgb(255,191,127)" height="10" width="10" x="0" y="20" /><rect fill="rgb(162,121,81)" height="10" width="10" x="10" y="20" /><rect fill="rgb(131,98,65)" height="10" width="10" x="20" y="20" /><rect fill="rgb(100,75,50)" height="10" width="10" x="30" y="20" /><rect fill="rgb(131,98,65)" height="10" width="10" x="40" y="20" /><rect fill="rgb(131,98,65)" height="10" width="10" x="50" y="20" /><rect fill="rgb(100,75,50)" height="10" width="10" x="60" y="20" /><rect fill="rgb(131,98,65)" height="10" width="10" x="70" y="20" /><rect fill="rgb(162,121,81)" height="10" width="10" x="80" y="20" /><rect fill="rgb(255,191,127)" height="10" width="10" x="90" y="20" /><rect fill="rgb(162,121,81)" height="10" width="10" x="0" y="30" /><rect fill="rgb(131,98,65)" height="10" width="10" x="10" y="30" /><rect fill="rgb(100,75,50)" height="10" width="10" x="20" y="30" /><rect fill="rgb(100,75,50)" height="10" width="10" x="30" y="30" /><rect fill="rgb(100,75,50)" height="10" width="10" x="40" y="30" /><rect fill="rgb(100,75,50)" height="10" width="10" x="50" y="30" /><rect fill="rgb(100,75,50)" height="10" width="10" x="60" y="30" /><rect fill="rgb(100,75,50)" height="10" width="10" x="70" y="30" /><rect fill="rgb(131,98,65)" height="10" width="10" x="80" y="30" /><rect fill="rgb(162,121,81)" height="10" width="10" x="90" y="30" /><rect fill="rgb(131,98,65)" height="10" width="10" x="0" y="40" /><rect fill="rgb(100,75,50)" height="10" width="10" x="10" y="40" /><rect fill="rgb(100,75,50)" height="10" width="10" x="20" y="40" /><rect fill="rgb(131,98,65)" height="10" width="10" x="30" y="40" /><rect fill="rgb(100,75,50)" height="10" width="10" x="40" y="40" /><rect fill="rgb(100,75,50)" height="10" width="10" x="50" y="40" /><rect fill="rgb(131,98,65)" height="10" width="10" x="60" y="40" /><rect fill="rgb(100,75,50)" height="10" width="10" x="70" y="40" /><rect fill="rgb(100,75,50)" height="10" width="10" x="80" y="40" /><rect fill="rgb(131,98,65)" height="10" width="10" x="90" y="40" /><rect fill="rgb(100,75,50)" height="10" width="10" x="0" y="50" /><rect fill="rgb(100,75,50)" height="10" width="10" x="10" y="50" /><rect fill="rgb(100,75,50)" height="10" width="10" x="20" y="50" /><rect fill="rgb(100,75,50)" height="10" width="10" x="30" y="50" /><rect fill="rgb(100,75,50)" height="10" width="10" x="40" y="50" /><rect fill="rgb(100,75,50)" height="10" width="10" x="50" y="50" /><rect fill="rgb(100,75,50)" height="10" width="10" x="60" y="50" /><rect fill="rgb(100,75,50)" height="10" width="10" x="70" y="50" /><rect fill="rgb(100,75,50)" height="10" width="10" x="80" y="50" /><rect fill="rgb(100,75,50)" height="10" width="10" x="90" y="50" /><rect fill="rgb(100,75,50)" height="10" width="10" x="0" y="60" /><rect fill="rgb(131,98,65)" height="10" width="10" x="10" y="60" /><rect fill="rgb(100,75,50)" height="10" width="10" x="20" y="60" /><rect fill="rgb(100,75,50)" height="10" width="10" x="30" y="60" /><rect fill="rgb(100,75,50)" height="10" width="10" x="40" y="60" /><rect fill="rgb(100,75,50)" height="10" width="10" x="50" y="60" /><rect fill="rgb(100,75,50)" height="10" width="10" x="60" y="60" /><rect fill="rgb(100,75,50)" height="10" width="10" x="70" y="60" /><rect fill="rgb(131,98,65)" height="10" width="10" x="80" y="60" /><rect fill="rgb(100,75,50)" height="10" width="10" x="90" y="60" /><rect fill="rgb(100,75,50)" height="10" width="10" x="0" y="70" /><rect fill="rgb(131,98,65)" height="10" width="10" x="10" y="70" /><rect fill="rgb(100,75,50)" height="10" width="10" x="20" y="70" /><rect fill="rgb(131,98,65)" height="10" width="10" x="30" y="70" /><rect fill="rgb(131,98,65)" height="10" width="10" x="40" y="70" /><rect fill="rgb(131,98,65)" height="10" width="10" x="50" y="70" /><rect fill="rgb(131,98,65)" height="10" width="10" x="60" y="70" /><rect fill="rgb(100,75,50)" height="10" width="10" x="70" y="70" /><rect fill="rgb(131,98,65)" height="10" width="10" x="80" y="70" /><rect fill="rgb(100,75,50)" height="10" width="10" x="90" y="70" /><rect fill="rgb(131,98,65)" height="10" width="10" x="0" y="80" /><rect fill="rgb(162,121,81)" height="10" width="10" x="10" y="80" /><rect fill="rgb(131,98,65)" height="10" width="10" x="20" y="80" /><rect fill="rgb(100,75,50)" height="10" width="10" x="30" y="80" /><rect fill="rgb(100,75,50)" height="10" width="10" x="40" y="80" /><rect fill="rgb(100,75,50)" height="10" width="10" x="50" y="80" /><rect fill="rgb(100,75,50)" height="10" width="10" x="60" y="80" /><rect fill="rgb(131,98,65)" height="10" width="10" x="70" y="80" /><rect fill="rgb(162,121,81)" height="10" width="10" x="80" y="80" /><rect fill="rgb(131,98,65)" height="10" width="10" x="90" y="80" /><rect fill="rgb(224,168,112)" height="10" width="10" x="0" y="90" /><rect fill="rgb(255,191,127)" height="10" width="10" x="10" y="90" /><rect fill="rgb(162,121,81)" height="10" width="10" x="20" y="90" /><rect fill="rgb(131,98,65)" height="10" width="10" x="30" y="90" /><rect fill="rgb(131,98,65)" height="10" width="10" x="40" y="90" /><rect fill="rgb(131,98,65)" height="10" width="10" x="50" y="90" /><rect fill="rgb(131,98,65)" height="10" width="10" x="60" y="90" /><rect fill="rgb(162,121,81)" height="10" width="10" x="70" y="90" /><rect fill="rgb(255,191,127)" height="10" width="10" x="80" y="90" /><rect fill="rgb(224,168,112)" height="10" width="10" x="90" y="90" /><line x1="0" x2="100" y1="0" y2="0" /><line x1="0" x2="100" y1="10" y2="10" /><line x1="0" x2="100" y1="20" y2="20" /><line x1="0" x2="100" y1="30" y2="30" /><line x1="0" x2="100" y1="40" y2="40" /><line x1="0" x2="100" y1="50" y2="50" /><line x1="0" x2="100" y1="60" y2="60" /><line x1="0" x2="100" y1="70" y2="70" /><line x1="0" x2="100" y1="80" y2="80" /><line x1="0" x2="100" y1="90" y2="90" /><line x1="0" x2="100" y1="100" y2="100" /><line x1="0" x2="0" y1="0" y2="100" /><line x1="10" x2="10" y1="0" y2="100" /><line x1="20" x2="20" y1="0" y2="100" /><line x1="30" x2="30" y1="0" y2="100" /><line x1="40" x2="40" y1="0" y2="100" /><line x1="50" x2="50" y1="0" y2="100" /><line x1="60" x2="60" y1="0" y2="100" /><line x1="70" x2="70" y1="0" y2="100" /><line x1="80" x2="80" y1="0" y2="100" /><line x1="90" x2="90" y1="0" y2="100" /><line x1="100" x2="100" y1="0" y2="100" /></g></svg>